<?xml version="1.0" standalone="no"?><!DOCTYPE svg PUBLIC "-//W3C//DTD SVG 1.1//EN" "http://www.w3.org/Graphics/SVG/1.1/DTD/svg11.dtd"><svg t="1708355958756" class="icon" viewBox="0 0 1024 1024" version="1.1" xmlns="http://www.w3.org/2000/svg" p-id="5130" xmlns:xlink="http://www.w3.org/1999/xlink" width="200" height="200"><path d="M871.24 443.3H120.56a32 32 0 0 1 0-64h750.68a32 32 0 0 1 0 64z" p-id="5131"></path><path d="M875.42 443.3a31.86 31.86 0 0 1-21.24-8L627.72 234a32 32 0 1 1 42.52-48l226.46 201.38a32 32 0 0 1-21.28 56zM875.44 646.7H124.76a32 32 0 1 1 0-64h750.68a32 32 0 0 1 0 64z" p-id="5132"></path><path d="M347.02 848a31.88 31.88 0 0 1-21.26-8L99.3 638.62a32 32 0 1 1 42.52-47.84L368.28 792a32 32 0 0 1-21.26 56z" p-id="5133"></path></svg>