<?xml version="1.0" encoding="utf-8"?>
<svg version="1.1" xmlns:xlink="http://www.w3.org/1999/xlink" width="15px" height="16px" xmlns="http://www.w3.org/2000/svg">
  <g transform="matrix(1 0 0 1 -499 -520 )">
    <path d="M 14.7017045454545 6.13636363636364  C 14.9005681818182 6.34848484848485  15 6.60606060606061  15 6.90909090909091  L 15 9.09090909090909  C 15 9.39393939393939  14.9005681818182 9.65151515151515  14.7017045454545 9.86363636363636  C 14.5028409090909 10.0757575757576  14.2613636363636 10.1818181818182  13.9772727272727 10.1818181818182  L 9.54545454545455 10.1818181818182  L 9.54545454545455 14.9090909090909  C 9.54545454545455 15.2121212121212  9.44602272727273 15.469696969697  9.24715909090909 15.6818181818182  C 9.04829545454546 15.8939393939394  8.80681818181818 16  8.52272727272727 16  L 6.47727272727273 16  C 6.19318181818182 16  5.95170454545455 15.8939393939394  5.75284090909091 15.6818181818182  C 5.55397727272727 15.469696969697  5.45454545454546 15.2121212121212  5.45454545454546 14.9090909090909  L 5.45454545454546 10.1818181818182  L 1.02272727272727 10.1818181818182  C 0.738636363636364 10.1818181818182  0.497159090909091 10.0757575757576  0.298295454545455 9.86363636363636  C 0.0994318181818182 9.65151515151515  0 9.39393939393939  0 9.09090909090909  L 0 6.90909090909091  C 0 6.60606060606061  0.0994318181818182 6.34848484848485  0.298295454545455 6.13636363636364  C 0.497159090909091 5.92424242424242  0.738636363636364 5.81818181818182  1.02272727272727 5.81818181818182  L 5.45454545454546 5.81818181818182  L 5.45454545454546 1.09090909090909  C 5.45454545454546 0.787878787878787  5.55397727272727 0.530303030303029  5.75284090909091 0.318181818181818  C 5.95170454545455 0.106060606060606  6.19318181818182 0  6.47727272727273 0  L 8.52272727272727 0  C 8.80681818181818 0  9.04829545454546 0.106060606060606  9.24715909090909 0.318181818181818  C 9.44602272727273 0.530303030303029  9.54545454545455 0.787878787878787  9.54545454545455 1.09090909090909  L 9.54545454545455 5.81818181818182  L 13.9772727272727 5.81818181818182  C 14.2613636363636 5.81818181818182  14.5028409090909 5.92424242424242  14.7017045454545 6.13636363636364  Z " fill-rule="nonzero" fill="#02a7f0" stroke="none" transform="matrix(1 0 0 1 499 520 )" />
  </g>
</svg>