<?xml version="1.0" encoding="utf-8"?>
<svg version="1.1" xmlns:xlink="http://www.w3.org/1999/xlink" width="18px" height="5px" xmlns="http://www.w3.org/2000/svg">
  <g transform="matrix(1 0 0 1 -710 -12 )">
    <path d="M 17.6420454545455 0.364583333333333  C 17.8806818181818 0.607638888888887  18 0.902777777777777  18 1.25  L 18 3.75  C 18 4.09722222222222  17.8806818181818 4.39236111111111  17.6420454545455 4.63541666666667  C 17.4034090909091 4.87847222222222  17.1136363636364 5  16.7727272727273 5  L 1.22727272727273 5  C 0.886363636363636 5  0.596590909090909 4.87847222222222  0.357954545454545 4.63541666666667  C 0.119318181818182 4.39236111111111  0 4.09722222222222  0 3.75  L 0 1.25  C 0 0.902777777777777  0.119318181818182 0.607638888888887  0.357954545454545 0.364583333333333  C 0.596590909090909 0.121527777777777  0.886363636363636 0  1.22727272727273 0  L 16.7727272727273 0  C 17.1136363636364 0  17.4034090909091 0.121527777777777  17.6420454545455 0.364583333333333  Z " fill-rule="nonzero" fill="#02a7f0" stroke="none" transform="matrix(1 0 0 1 710 12 )" />
  </g>
</svg>