<?xml version="1.0" encoding="utf-8"?>
<svg version="1.1" xmlns:xlink="http://www.w3.org/1999/xlink" width="25px" height="25px" xmlns="http://www.w3.org/2000/svg">
  <g transform="matrix(1 0 0 1 -1255 -158 )">
    <path d="M 24.4107744107744 18.6868686868687  C 24.8035914702581 19.0796857463524  25 19.5566778900112  25 20.1178451178451  C 25 20.679012345679  24.8035914702581 21.1560044893378  24.4107744107744 21.5488215488215  L 21.5488215488215 24.4107744107744  C 21.1560044893378 24.8035914702581  20.679012345679 25  20.1178451178451 25  C 19.5566778900112 25  19.0796857463524 24.8035914702581  18.6868686868687 24.4107744107744  L 12.5 18.2239057239057  L 6.31313131313131 24.4107744107744  C 5.92031425364759 24.8035914702581  5.44332210998878 25  4.88215488215488 25  C 4.32098765432099 25  3.84399551066218 24.8035914702581  3.45117845117845 24.4107744107744  L 0.589225589225589 21.5488215488215  C 0.196408529741863 21.1560044893378  0 20.679012345679  0 20.1178451178451  C 0 19.5566778900112  0.196408529741863 19.0796857463524  0.589225589225589 18.6868686868687  L 6.77609427609428 12.5  L 0.589225589225589 6.31313131313131  C 0.196408529741863 5.92031425364759  0 5.44332210998878  0 4.88215488215488  C 0 4.32098765432099  0.196408529741863 3.84399551066217  0.589225589225589 3.45117845117845  L 3.45117845117845 0.589225589225589  C 3.84399551066218 0.196408529741862  4.32098765432099 0  4.88215488215488 0  C 5.44332210998878 0  5.92031425364759 0.196408529741862  6.31313131313131 0.589225589225589  L 12.5 6.77609427609428  L 18.6868686868687 0.589225589225589  C 19.0796857463524 0.196408529741862  19.5566778900112 0  20.1178451178451 0  C 20.679012345679 0  21.1560044893378 0.196408529741862  21.5488215488215 0.589225589225589  L 24.4107744107744 3.45117845117845  C 24.8035914702581 3.84399551066217  25 4.32098765432099  25 4.88215488215488  C 25 5.44332210998878  24.8035914702581 5.92031425364759  24.4107744107744 6.31313131313131  L 18.2239057239057 12.5  L 24.4107744107744 18.6868686868687  Z " fill-rule="nonzero" fill="#555555" stroke="none" transform="matrix(1 0 0 1 1255 158 )" />
  </g>
</svg>