<?xml version="1.0" encoding="utf-8"?>
<svg version="1.1" xmlns:xlink="http://www.w3.org/1999/xlink" width="16px" height="9px" xmlns="http://www.w3.org/2000/svg">
  <g transform="matrix(1 0 0 1 -732 -156 )">
    <path d="M 15.8396793587174 0.927835051546391  C 15.9465597862391 1.03092783505154  16 1.14948453608247  16 1.28350515463918  C 16 1.41752577319588  15.9465597862391 1.5360824742268  15.8396793587174 1.63917525773196  L 8.3687374749499 8.84536082474227  C 8.26185704742819 8.94845360824742  8.13894455577822 9  8 9  C 7.86105544422178 9  7.73814295257181 8.94845360824742  7.6312625250501 8.84536082474227  L 0.160320641282565 1.63917525773196  C 0.0534402137608552 1.5360824742268  0 1.41752577319588  0 1.28350515463918  C 0 1.14948453608247  0.0534402137608552 1.03092783505154  0.160320641282565 0.927835051546391  L 0.961923847695391 0.154639175257732  C 1.0688042752171 0.0515463917525761  1.19171676686707 0  1.33066132264529 0  C 1.46960587842351 0  1.59251837007348 0.0515463917525761  1.69939879759519 0.154639175257732  L 8 6.2319587628866  L 14.3006012024048 0.154639175257732  C 14.4074816299265 0.0515463917525761  14.5303941215765 0  14.6693386773547 0  C 14.8082832331329 0  14.9311957247829 0.0515463917525761  15.0380761523046 0.154639175257732  L 15.8396793587174 0.927835051546391  Z " fill-rule="nonzero" fill="#02a7f0" stroke="none" transform="matrix(1 0 0 1 732 156 )" />
  </g>
</svg>