<?xml version="1.0" encoding="utf-8"?>
<svg version="1.1" xmlns:xlink="http://www.w3.org/1999/xlink" width="13px" height="7px" xmlns="http://www.w3.org/2000/svg">
  <g transform="matrix(1 0 0 1 -51 -15 )">
    <path d="M 12.8697394789579 0.721649484536082  C 12.9565798263193 0.801832760595645  13 0.894043528064146  13 0.998281786941581  C 13 1.10252004581901  12.9565798263193 1.19473081328751  12.8697394789579 1.27491408934708  L 6.79959919839679 6.87972508591065  C 6.7127588510354 6.95990836197022  6.61289245156981 7  6.5 7  C 6.38710754843019 7  6.2872411489646 6.95990836197022  6.20040080160321 6.87972508591065  L 0.130260521042084 1.27491408934708  C 0.0434201736806948 1.19473081328751  0 1.10252004581901  0 0.998281786941581  C 0 0.894043528064146  0.0434201736806948 0.801832760595645  0.130260521042084 0.721649484536082  L 0.781563126252505 0.120274914089347  C 0.868403473613895 0.0400916380297814  0.968269873079492 0  1.0811623246493 0  C 1.19405477621911 0  1.2939211756847 0.0400916380297814  1.38076152304609 0.120274914089347  L 6.5 4.84707903780069  L 11.6192384769539 0.120274914089347  C 11.7060788243153 0.0400916380297814  11.8059452237809 0  11.9188376753507 0  C 12.0317301269205 0  12.1315965263861 0.0400916380297814  12.2184368737475 0.120274914089347  L 12.8697394789579 0.721649484536082  Z " fill-rule="nonzero" fill="#7f7f7f" stroke="none" transform="matrix(1 0 0 1 51 15 )" />
  </g>
</svg>