<?xml version="1.0" encoding="utf-8"?>
<svg version="1.1" xmlns:xlink="http://www.w3.org/1999/xlink" width="45px" height="22px" viewBox="0 0  45 22" xmlns="http://www.w3.org/2000/svg">
  <path d="M 1 5  A 4 4 0 0 1 5 1 L 40 1  A 4 4 0 0 1 44 5 L 44 17  A 4 4 0 0 1 40 21 L 5 21  A 4 4 0 0 1 1 17 L 1 5  Z " fill-rule="nonzero" fill="#f0f0f0" stroke="none" />
  <path d="M 0.5 5  A 4.5 4.5 0 0 1 5 0.5 L 40 0.5  A 4.5 4.5 0 0 1 44.5 5 L 44.5 17  A 4.5 4.5 0 0 1 40 21.5 L 5 21.5  A 4.5 4.5 0 0 1 0.5 17 L 0.5 5  Z " stroke-width="1" stroke="#d7d7d7" fill="none" stroke-opacity="0.996078431372549" />
</svg>