<?xml version="1.0" encoding="utf-8"?>
<svg version="1.1" xmlns:xlink="http://www.w3.org/1999/xlink" width="25px" height="25px" xmlns="http://www.w3.org/2000/svg">
  <g transform="matrix(1 0 0 1 -37 -2 )">
    <path d="M 49.5 2  C 56.5 2  62 7.5  62 14.5  C 62 21.5  56.5 27  49.5 27  C 42.5 27  37 21.5  37 14.5  C 37 7.5  42.5 2  49.5 2  Z " fill-rule="nonzero" fill="#ffffff" stroke="none" />
    <path d="M 49.5 2.5  C 56.22 2.5  61.5 7.78  61.5 14.5  C 61.5 21.22  56.22 26.5  49.5 26.5  C 42.78 26.5  37.5 21.22  37.5 14.5  C 37.5 7.78  42.78 2.5  49.5 2.5  Z " stroke-width="1" stroke="#8c8c8c" fill="none" />
  </g>
</svg>