<?xml version="1.0" encoding="utf-8"?>
<svg version="1.1" xmlns:xlink="http://www.w3.org/1999/xlink" width="15px" height="15px" xmlns="http://www.w3.org/2000/svg">
  <g transform="matrix(1 0 0 1 -982 -10 )">
    <path d="M 8.662109375 12.412109375  C 8.720703125 12.353515625  8.75 12.2786458333333  8.75 12.1875  L 8.75 10.3125  C 8.75 10.2213541666667  8.720703125 10.146484375  8.662109375 10.087890625  C 8.603515625 10.029296875  8.52864583333333 10  8.4375 10  L 6.5625 10  C 6.47135416666667 10  6.396484375 10.029296875  6.337890625 10.087890625  C 6.279296875 10.146484375  6.25 10.2213541666667  6.25 10.3125  L 6.25 12.1875  C 6.25 12.2786458333333  6.279296875 12.353515625  6.337890625 12.412109375  C 6.396484375 12.470703125  6.47135416666667 12.5  6.5625 12.5  L 8.4375 12.5  C 8.52864583333333 12.5  8.603515625 12.470703125  8.662109375 12.412109375  Z M 11.1279296875 6.416015625  C 11.2093098958333 6.17513020833333  11.25 5.91145833333333  11.25 5.625  C 11.25 5.05208333333333  11.0693359375 4.521484375  10.7080078125 4.033203125  C 10.3466796875 3.544921875  9.89583333333334 3.16731770833333  9.35546875 2.900390625  C 8.81510416666667 2.63346354166667  8.26171875 2.5  7.6953125 2.5  C 6.11328125 2.5  4.90559895833333 3.193359375  4.072265625 4.580078125  C 3.974609375 4.736328125  4.00065104166667 4.873046875  4.150390625 4.990234375  L 5.439453125 5.966796875  C 5.48502604166667 6.005859375  5.546875 6.025390625  5.625 6.025390625  C 5.72916666666667 6.025390625  5.810546875 5.986328125  5.869140625 5.908203125  C 6.21419270833333 5.46549479166667  6.494140625 5.166015625  6.708984375 5.009765625  C 6.93033854166667 4.853515625  7.21028645833333 4.775390625  7.548828125 4.775390625  C 7.861328125 4.775390625  8.1396484375 4.86002604166667  8.3837890625 5.029296875  C 8.6279296875 5.19856770833333  8.75 5.390625  8.75 5.60546875  C 8.75 5.85286458333333  8.68489583333333 6.05143229166667  8.5546875 6.201171875  C 8.42447916666667 6.35091145833333  8.203125 6.49739583333333  7.890625 6.640625  C 7.48046875 6.82291666666667  7.1044921875 7.1044921875  6.7626953125 7.4853515625  C 6.4208984375 7.8662109375  6.25 8.27473958333333  6.25 8.7109375  L 6.25 9.0625  C 6.25 9.15364583333333  6.279296875 9.228515625  6.337890625 9.287109375  C 6.396484375 9.345703125  6.47135416666667 9.375  6.5625 9.375  L 8.4375 9.375  C 8.52864583333333 9.375  8.603515625 9.345703125  8.662109375 9.287109375  C 8.720703125 9.228515625  8.75 9.15364583333333  8.75 9.0625  C 8.75 8.93880208333333  8.81998697916667 8.77766927083333  8.9599609375 8.5791015625  C 9.09993489583333 8.38053385416667  9.27734375 8.21940104166667  9.4921875 8.095703125  C 9.70052083333333 7.978515625  9.86002604166667 7.8857421875  9.970703125 7.8173828125  C 10.0813802083333 7.7490234375  10.2311197916667 7.63509114583333  10.419921875 7.4755859375  C 10.6087239583333 7.31608072916667  10.7535807291667 7.15983072916667  10.8544921875 7.0068359375  C 10.9554036458333 6.85384114583333  11.0465494791667 6.65690104166667  11.1279296875 6.416015625  Z M 13.994140625 3.7353515625  C 14.6647135416667 4.88444010416667  15 6.13932291666666  15 7.5  C 15 8.86067708333333  14.6647135416667 10.1155598958333  13.994140625 11.2646484375  C 13.3235677083333 12.4137369791667  12.4137369791667 13.3235677083333  11.2646484375 13.994140625  C 10.1155598958333 14.6647135416667  8.86067708333333 15  7.5 15  C 6.13932291666667 15  4.88444010416667 14.6647135416667  3.7353515625 13.994140625  C 2.58626302083333 13.3235677083333  1.67643229166667 12.4137369791667  1.005859375 11.2646484375  C 0.335286458333333 10.1155598958333  0 8.86067708333333  0 7.5  C 0 6.13932291666666  0.335286458333333 4.88444010416667  1.005859375 3.7353515625  C 1.67643229166667 2.58626302083333  2.58626302083333 1.67643229166667  3.7353515625 1.005859375  C 4.88444010416667 0.335286458333332  6.13932291666667 0  7.5 0  C 8.86067708333333 0  10.1155598958333 0.335286458333332  11.2646484375 1.005859375  C 12.4137369791667 1.67643229166667  13.3235677083333 2.58626302083333  13.994140625 3.7353515625  Z " fill-rule="nonzero" fill="#02a7f0" stroke="none" transform="matrix(1 0 0 1 982 10 )" />
  </g>
</svg>