<?xml version="1.0" encoding="utf-8"?>
<svg version="1.1" xmlns:xlink="http://www.w3.org/1999/xlink" width="15px" height="16px" xmlns="http://www.w3.org/2000/svg">
  <g transform="matrix(1 0 0 1 -1053 -10 )">
    <path d="M 8.88198757763975 7.6312625250501  C 8.98550724637681 7.73814295257181  9.03726708074534 7.86105544422178  9.03726708074534 8  C 9.03726708074534 8.13894455577822  8.98550724637681 8.26185704742819  8.88198757763975 8.3687374749499  L 1.64596273291925 15.8396793587174  C 1.54244306418219 15.9465597862391  1.42339544513458 16  1.2888198757764 16  C 1.15424430641822 16  1.0351966873706 15.9465597862391  0.93167701863354 15.8396793587174  L 0.15527950310559 15.0380761523046  C 0.0517598343685301 14.9311957247829  0 14.8082832331329  0 14.6693386773547  C 0 14.5303941215765  0.0517598343685301 14.4074816299265  0.15527950310559 14.3006012024048  L 6.25776397515528 8  L 0.15527950310559 1.69939879759519  C 0.0517598343685301 1.59251837007348  0 1.46960587842351  0 1.33066132264529  C 0 1.19171676686707  0.0517598343685301 1.0688042752171  0.15527950310559 0.96192384769539  L 0.93167701863354 0.160320641282565  C 1.0351966873706 0.0534402137608545  1.15424430641822 0  1.2888198757764 0  C 1.42339544513458 0  1.54244306418219 0.0534402137608545  1.64596273291925 0.160320641282565  L 8.88198757763975 7.6312625250501  Z M 14.8447204968944 7.6312625250501  C 14.9482401656315 7.73814295257181  15 7.86105544422178  15 8  C 15 8.13894455577822  14.9482401656315 8.26185704742819  14.8447204968944 8.3687374749499  L 7.60869565217391 15.8396793587174  C 7.50517598343685 15.9465597862391  7.38612836438923 16  7.25155279503106 16  C 7.11697722567288 16  6.99792960662526 15.9465597862391  6.8944099378882 15.8396793587174  L 6.11801242236025 15.0380761523046  C 6.01449275362319 14.9311957247829  5.96273291925466 14.8082832331329  5.96273291925466 14.6693386773547  C 5.96273291925466 14.5303941215765  6.01449275362319 14.4074816299265  6.11801242236025 14.3006012024048  L 12.2204968944099 8  L 6.11801242236025 1.69939879759519  C 6.01449275362319 1.59251837007348  5.96273291925466 1.46960587842351  5.96273291925466 1.33066132264529  C 5.96273291925466 1.19171676686707  6.01449275362319 1.0688042752171  6.11801242236025 0.96192384769539  L 6.8944099378882 0.160320641282565  C 6.99792960662526 0.0534402137608545  7.11697722567288 0  7.25155279503106 0  C 7.38612836438923 0  7.50517598343685 0.0534402137608545  7.60869565217391 0.160320641282565  L 14.8447204968944 7.6312625250501  Z " fill-rule="nonzero" fill="#02a7f0" stroke="none" transform="matrix(1 0 0 1 1053 10 )" />
  </g>
</svg>