<?xml version="1.0" encoding="utf-8"?>
<svg version="1.1" xmlns:xlink="http://www.w3.org/1999/xlink" width="13px" height="7px" xmlns="http://www.w3.org/2000/svg">
  <g transform="matrix(1 0 0 1 -51 0 )">
    <path d="M 12.8697394789579 5.72508591065292  C 12.9565798263193 5.80526918671248  13 5.89747995418098  13 6.00171821305842  C 13 6.10595647193585  12.9565798263193 6.19816723940435  12.8697394789579 6.27835051546392  L 12.2184368737475 6.87972508591065  C 12.1315965263861 6.95990836197022  12.0317301269205 7  11.9188376753507 7  C 11.8059452237809 7  11.7060788243153 6.95990836197022  11.6192384769539 6.87972508591065  L 6.5 2.15292096219931  L 1.38076152304609 6.87972508591065  C 1.2939211756847 6.95990836197022  1.19405477621911 7  1.0811623246493 7  C 0.968269873079492 7  0.868403473613895 6.95990836197022  0.781563126252505 6.87972508591065  L 0.130260521042084 6.27835051546392  C 0.0434201736806948 6.19816723940435  0 6.10595647193585  0 6.00171821305842  C 0 5.89747995418098  0.0434201736806948 5.80526918671248  0.130260521042084 5.72508591065292  L 6.20040080160321 0.120274914089347  C 6.2872411489646 0.0400916380297814  6.38710754843019 0  6.5 0  C 6.61289245156981 0  6.7127588510354 0.0400916380297814  6.79959919839679 0.120274914089347  L 12.8697394789579 5.72508591065292  Z " fill-rule="nonzero" fill="#02a7f0" stroke="none" transform="matrix(1 0 0 1 51 0 )" />
  </g>
</svg>