<?xml version="1.0" encoding="utf-8"?>
<svg version="1.1" xmlns:xlink="http://www.w3.org/1999/xlink" width="16px" height="9px" xmlns="http://www.w3.org/2000/svg">
  <g transform="matrix(1 0 0 1 -732 -141 )">
    <path d="M 15.8396793587174 7.36082474226804  C 15.9465597862391 7.46391752577319  16 7.58247422680412  16 7.71649484536083  C 16 7.85051546391752  15.9465597862391 7.96907216494845  15.8396793587174 8.07216494845361  L 15.0380761523046 8.84536082474227  C 14.9311957247829 8.94845360824742  14.8082832331329 9  14.6693386773547 9  C 14.5303941215765 9  14.4074816299265 8.94845360824742  14.3006012024048 8.84536082474227  L 8 2.7680412371134  L 1.69939879759519 8.84536082474227  C 1.59251837007348 8.94845360824742  1.46960587842351 9  1.33066132264529 9  C 1.19171676686707 9  1.0688042752171 8.94845360824742  0.961923847695391 8.84536082474227  L 0.160320641282565 8.07216494845361  C 0.0534402137608552 7.96907216494845  0 7.85051546391752  0 7.71649484536083  C 0 7.58247422680412  0.0534402137608552 7.46391752577319  0.160320641282565 7.36082474226804  L 7.6312625250501 0.154639175257732  C 7.73814295257181 0.0515463917525761  7.86105544422178 0  8 0  C 8.13894455577822 0  8.26185704742819 0.0515463917525761  8.3687374749499 0.154639175257732  L 15.8396793587174 7.36082474226804  Z " fill-rule="nonzero" fill="#02a7f0" stroke="none" transform="matrix(1 0 0 1 732 141 )" />
  </g>
</svg>