<?xml version="1.0" encoding="utf-8"?>
<svg version="1.1" xmlns:xlink="http://www.w3.org/1999/xlink" width="13px" height="13px" xmlns="http://www.w3.org/2000/svg">
  <g transform="matrix(1 0 0 1 -48 -3 )">
    <path d="M 2.196699669967 11.9016501650165  L 3.11485148514852 11.9016501650165  L 3.8957095709571 11.1207920792079  L 1.87920792079208 9.10429042904291  L 1.0983498349835 9.88514851485149  L 1.0983498349835 10.803300330033  L 2.196699669967 10.803300330033  L 2.196699669967 11.9016501650165  Z M 7.54257425742574 4.08448844884488  C 7.58261826182618 4.04444444444444  7.6026402640264 3.9958195819582  7.6026402640264 3.93861386138614  C 7.6026402640264 3.81276127612761  7.53971397139714 3.74983498349835  7.41386138613861 3.74983498349835  C 7.35665566556656 3.74983498349835  7.30803080308031 3.76985698569857  7.26798679867987 3.80990099009901  L 2.61716171617162 8.46072607260726  C 2.57711771177118 8.5007700770077  2.55709570957096 8.54939493949395  2.55709570957096 8.60660066006601  C 2.55709570957096 8.73245324532453  2.62002200220022 8.7953795379538  2.74587458745875 8.7953795379538  C 2.8030803080308 8.7953795379538  2.85170517051705 8.77535753575357  2.89174917491749 8.73531353135314  L 7.54257425742574 4.08448844884488  Z M 0 9.43036303630363  L 7.13927392739274 2.29108910891089  L 10.7089108910891 5.86072607260726  L 3.56963696369637 13  L 0 13  L 0 9.43036303630363  Z M 12.6825082508251 2.33399339933993  C 12.8941694169417 2.55709570957096  13 2.81738173817382  13 3.11485148514852  C 13 3.41804180418042  12.8941694169417 3.67546754675467  12.6825082508251 3.88712871287129  L 11.2580858085809 5.31155115511551  L 7.68844884488449 1.74191419141914  L 9.11287128712871 0.326072607260725  C 9.31881188118812 0.108690869086908  9.57623762376238 0  9.88514851485149 0  C 10.1883388338834 0  10.4486248624863 0.108690869086908  10.6660066006601 0.326072607260725  L 12.6825082508251 2.33399339933993  Z " fill-rule="nonzero" fill="#1890ff" stroke="none" transform="matrix(1 0 0 1 48 3 )" />
  </g>
</svg>