<?xml version="1.0" encoding="utf-8"?>
<svg version="1.1" xmlns:xlink="http://www.w3.org/1999/xlink" width="15px" height="15px" xmlns="http://www.w3.org/2000/svg">
  <g transform="matrix(1 0 0 1 -919 -15 )">
    <path d="M 2.53465346534653 13.7326732673267  L 3.59405940594059 13.7326732673267  L 4.4950495049505 12.8316831683168  L 2.16831683168317 10.5049504950495  L 1.26732673267327 11.4059405940594  L 1.26732673267327 12.4653465346535  L 2.53465346534653 12.4653465346535  L 2.53465346534653 13.7326732673267  Z M 8.7029702970297 4.71287128712871  C 8.74917491749175 4.66666666666667  8.77227722772277 4.61056105610561  8.77227722772277 4.54455445544555  C 8.77227722772277 4.3993399339934  8.6996699669967 4.32673267326733  8.55445544554455 4.32673267326733  C 8.48844884488449 4.32673267326733  8.43234323432343 4.34983498349835  8.38613861386139 4.3960396039604  L 3.01980198019802 9.76237623762376  C 2.97359735973597 9.80858085808581  2.95049504950495 9.86468646864686  2.95049504950495 9.93069306930693  C 2.95049504950495 10.0759075907591  3.02310231023102 10.1485148514851  3.16831683168317 10.1485148514851  C 3.23432343234323 10.1485148514851  3.29042904290429 10.1254125412541  3.33663366336634 10.0792079207921  L 8.7029702970297 4.71287128712871  Z M 0 10.8811881188119  L 8.23762376237624 2.64356435643564  L 12.3564356435644 6.76237623762376  L 4.11881188118812 15  L 0 15  L 0 10.8811881188119  Z M 14.6336633663366 2.69306930693069  C 14.8778877887789 2.95049504950495  15 3.25082508250825  15 3.59405940594059  C 15 3.94389438943894  14.8778877887789 4.24092409240924  14.6336633663366 4.48514851485149  L 12.990099009901 6.12871287128713  L 8.87128712871287 2.00990099009901  L 10.5148514851485 0.376237623762375  C 10.7524752475248 0.125412541254124  11.049504950495 0  11.4059405940594 0  C 11.7557755775578 0  12.0561056105611 0.125412541254124  12.3069306930693 0.376237623762375  L 14.6336633663366 2.69306930693069  Z " fill-rule="nonzero" fill="#7f7f7f" stroke="none" transform="matrix(1 0 0 1 919 15 )" />
  </g>
</svg>