<?xml version="1.0" encoding="utf-8"?>
<svg version="1.1" xmlns:xlink="http://www.w3.org/1999/xlink" width="18px" height="18px" xmlns="http://www.w3.org/2000/svg">
  <g>
    <path d="M 3.04158415841584 16.4792079207921  L 4.31287128712871 16.4792079207921  L 5.39405940594059 15.3980198019802  L 2.6019801980198 12.6059405940594  L 1.52079207920792 13.6871287128713  L 1.52079207920792 14.9584158415842  L 3.04158415841584 14.9584158415842  L 3.04158415841584 16.4792079207921  Z M 10.4435643564356 5.65544554455446  C 10.4990099009901 5.6  10.5267326732673 5.53267326732673  10.5267326732673 5.45346534653465  C 10.5267326732673 5.27920792079208  10.439603960396 5.19207920792079  10.2653465346535 5.19207920792079  C 10.1861386138614 5.19207920792079  10.1188118811881 5.21980198019802  10.0633663366337 5.27524752475248  L 3.62376237623762 11.7148514851485  C 3.56831683168317 11.770297029703  3.54059405940594 11.8376237623762  3.54059405940594 11.9168316831683  C 3.54059405940594 12.0910891089109  3.62772277227723 12.1782178217822  3.8019801980198 12.1782178217822  C 3.88118811881188 12.1782178217822  3.94851485148515 12.150495049505  4.0039603960396 12.0950495049505  L 10.4435643564356 5.65544554455446  Z M 0 13.0574257425743  L 9.88514851485149 3.17227722772277  L 14.8277227722772 8.11485148514852  L 4.94257425742574 18  L 0 18  L 0 13.0574257425743  Z M 17.560396039604 3.23168316831683  C 17.8534653465347 3.54059405940594  18 3.9009900990099  18 4.31287128712871  C 18 4.73267326732673  17.8534653465347 5.08910891089109  17.560396039604 5.38217821782178  L 15.5881188118812 7.35445544554455  L 10.6455445544554 2.41188118811881  L 12.6178217821782 0.451485148514851  C 12.9029702970297 0.150495049504949  13.2594059405941 0  13.6871287128713 0  C 14.1069306930693 0  14.4673267326733 0.150495049504949  14.7683168316832 0.451485148514851  L 17.560396039604 3.23168316831683  Z " fill-rule="nonzero" fill="#02a7f0" stroke="none" />
  </g>
</svg>