<?xml version="1.0" encoding="utf-8"?>
<svg version="1.1" xmlns:xlink="http://www.w3.org/1999/xlink" width="18px" height="9px" xmlns="http://www.w3.org/2000/svg">
  <g transform="matrix(1 0 0 1 -861 -19 )">
    <path d="M 13.3643973214286 7.05078125  C 14.70703125 6.41796875  15.8236607142857 5.56770833333333  16.7142857142857 4.5  C 15.6964285714286 3.27083333333333  14.4207589285714 2.3515625  12.8872767857143 1.7421875  C 13.2957589285714 2.28385416666667  13.5 2.86979166666667  13.5 3.5  C 13.5 4.46354166666667  13.0597098214286 5.28776041666667  12.1791294642857 5.97265625  C 11.2985491071429 6.65755208333333  10.2388392857143 7  9 7  C 7.76116071428572 7  6.70145089285714 6.65755208333333  5.82087053571429 5.97265625  C 4.94029017857143 5.28776041666667  4.5 4.46354166666667  4.5 3.5  C 4.5 2.86979166666667  4.70424107142857 2.28385416666667  5.11272321428571 1.7421875  C 3.57924107142857 2.3515625  2.30357142857143 3.27083333333333  1.28571428571429 4.5  C 2.17633928571429 5.56770833333333  3.29296875 6.41796875  4.63560267857143 7.05078125  C 5.97823660714286 7.68359375  7.43303571428571 8  9 8  C 10.5669642857143 8  12.0217633928571 7.68359375  13.3643973214286 7.05078125  Z M 9.34151785714286 1.765625  C 9.43526785714286 1.69270833333333  9.48214285714286 1.60416666666667  9.48214285714286 1.5  C 9.48214285714286 1.39583333333333  9.43526785714286 1.30729166666667  9.34151785714286 1.234375  C 9.24776785714286 1.16145833333333  9.13392857142857 1.125  9 1.125  C 8.16294642857143 1.125  7.44475446428572 1.35807291666667  6.84542410714286 1.82421875  C 6.24609375 2.29036458333333  5.94642857142857 2.84895833333333  5.94642857142857 3.5  C 5.94642857142857 3.60416666666667  5.99330357142857 3.69270833333333  6.08705357142857 3.765625  C 6.18080357142857 3.83854166666667  6.29464285714286 3.875  6.42857142857143 3.875  C 6.5625 3.875  6.67633928571429 3.83854166666667  6.77008928571429 3.765625  C 6.86383928571429 3.69270833333333  6.91071428571429 3.60416666666667  6.91071428571429 3.5  C 6.91071428571429 3.05208333333333  7.11495535714286 2.66927083333333  7.5234375 2.3515625  C 7.93191964285714 2.03385416666667  8.42410714285714 1.875  9 1.875  C 9.13392857142857 1.875  9.24776785714286 1.83854166666667  9.34151785714286 1.765625  Z M 17.7991071428571 3.9609375  C 17.9330357142857 4.14322916666667  18 4.32291666666667  18 4.5  C 18 4.67708333333333  17.9330357142857 4.85677083333333  17.7991071428571 5.0390625  C 16.8616071428571 6.23697916666667  15.6010044642857 7.19661458333333  14.0172991071429 7.91796875  C 12.43359375 8.63932291666667  10.7611607142857 9  9 9  C 7.23883928571429 9  5.56640625 8.63802083333333  3.98270089285714 7.9140625  C 2.39899553571429 7.19010416666667  1.13839285714286 6.23177083333333  0.200892857142857 5.0390625  C 0.0669642857142857 4.85677083333333  0 4.67708333333333  0 4.5  C 0 4.32291666666667  0.0669642857142857 4.14322916666667  0.200892857142857 3.9609375  C 1.13839285714286 2.76822916666667  2.39899553571429 1.80989583333333  3.98270089285714 1.0859375  C 5.56640625 0.361979166666666  7.23883928571429 0  9 0  C 10.7611607142857 0  12.43359375 0.361979166666666  14.0172991071429 1.0859375  C 15.6010044642857 1.80989583333333  16.8616071428571 2.76822916666667  17.7991071428571 3.9609375  Z " fill-rule="nonzero" fill="#ffffff" stroke="none" transform="matrix(1 0 0 1 861 19 )" />
  </g>
</svg>