<?xml version="1.0" encoding="utf-8"?>
<svg version="1.1" xmlns:xlink="http://www.w3.org/1999/xlink" width="56px" height="24px" xmlns="http://www.w3.org/2000/svg">
  <g transform="matrix(1 0 0 1 41 4 )">
    <path d="M -40 1  A 4 4 0 0 1 -36 -3 L 10 -3  A 4 4 0 0 1 14 1 L 14 15  A 4 4 0 0 1 10 19 L -36 19  A 4 4 0 0 1 -40 15 L -40 1  Z " fill-rule="nonzero" fill="#02a7f0" stroke="none" />
    <path d="M -40.5 1  A 4.5 4.5 0 0 1 -36 -3.5 L 10 -3.5  A 4.5 4.5 0 0 1 14.5 1 L 14.5 15  A 4.5 4.5 0 0 1 10 19.5 L -36 19.5  A 4.5 4.5 0 0 1 -40.5 15 L -40.5 1  Z " stroke-width="1" stroke="#d7d7d7" fill="none" stroke-opacity="0.996078431372549" />
  </g>
</svg>