<?xml version="1.0" encoding="utf-8"?>
<svg version="1.1" xmlns:xlink="http://www.w3.org/1999/xlink" width="20px" height="22px" xmlns="http://www.w3.org/2000/svg">
  <g transform="matrix(1 0 0 1 -1533 -587 )">
    <path d="M 19.5286195286195 16.4444444444444  C 19.8428731762065 16.7901234567901  20 17.2098765432099  20 17.7037037037037  C 20 18.1975308641975  19.8428731762065 18.6172839506173  19.5286195286195 18.962962962963  L 17.2390572390572 21.4814814814815  C 16.9248035914703 21.8271604938272  16.5432098765432 22  16.0942760942761 22  C 15.645342312009 22  15.2637485970819 21.8271604938272  14.9494949494949 21.4814814814815  L 10 16.037037037037  L 5.05050505050505 21.4814814814815  C 4.73625140291807 21.8271604938272  4.35465768799102 22  3.90572390572391 22  C 3.45679012345679 22  3.07519640852974 21.8271604938272  2.76094276094276 21.4814814814815  L 0.471380471380471 18.962962962963  C 0.157126823793491 18.6172839506173  0 18.1975308641975  0 17.7037037037037  C 0 17.2098765432099  0.157126823793491 16.7901234567901  0.471380471380471 16.4444444444444  L 5.42087542087542 11  L 0.471380471380471 5.55555555555555  C 0.157126823793491 5.20987654320987  0 4.79012345679012  0 4.2962962962963  C 0 3.80246913580247  0.157126823793491 3.38271604938271  0.471380471380471 3.03703703703704  L 2.76094276094276 0.518518518518519  C 3.07519640852974 0.172839506172839  3.45679012345679 0  3.90572390572391 0  C 4.35465768799102 0  4.73625140291807 0.172839506172839  5.05050505050505 0.518518518518519  L 10 5.96296296296296  L 14.9494949494949 0.518518518518519  C 15.2637485970819 0.172839506172839  15.645342312009 0  16.0942760942761 0  C 16.5432098765432 0  16.9248035914703 0.172839506172839  17.2390572390572 0.518518518518519  L 19.5286195286195 3.03703703703704  C 19.8428731762065 3.38271604938271  20 3.80246913580247  20 4.2962962962963  C 20 4.79012345679012  19.8428731762065 5.20987654320987  19.5286195286195 5.55555555555555  L 14.5791245791246 11  L 19.5286195286195 16.4444444444444  Z " fill-rule="nonzero" fill="#555555" stroke="none" transform="matrix(1 0 0 1 1533 587 )" />
  </g>
</svg>