<?xml version="1.0" encoding="utf-8"?>
<svg version="1.1" xmlns:xlink="http://www.w3.org/1999/xlink" width="25px" height="19px" xmlns="http://www.w3.org/2000/svg">
  <g transform="matrix(1 0 0 1 -82 -12 )">
    <path d="M 25 4.21304347826087  C 25 4.53735909822866  24.9017783291977 4.81578099838969  24.7053349875931 5.04830917874396  L 13.1978908188586 18.6512077294686  C 13.0014474772539 18.8837359098229  12.7688172043011 19  12.5 19  C 12.2311827956989 19  11.9985525227461 18.8837359098229  11.8021091811414 18.6512077294686  L 0.294665012406948 5.04830917874396  C 0.0982216708023161 4.81578099838969  0 4.53735909822866  0 4.21304347826087  C 0 3.88872785829307  0.0982216708023161 3.61030595813204  0.294665012406948 3.37777777777778  L 2.86910669975186 0.348792270531401  C 3.06555004135649 0.116264090177133  3.29818031430935 0  3.56699751861042 0  C 3.8358147229115 0  4.06844499586435 0.116264090177133  4.26488833746898 0.348792270531401  L 12.5 10.0966183574879  L 20.735111662531 0.348792270531401  C 20.9315550041357 0.116264090177133  21.1641852770885 0  21.4330024813896 0  C 21.7018196856907 0  21.9344499586435 0.116264090177133  22.1308933002481 0.348792270531401  L 24.7053349875931 3.37777777777778  C 24.9017783291977 3.61030595813204  25 3.88872785829307  25 4.21304347826087  Z " fill-rule="nonzero" fill="#000000" stroke="none" transform="matrix(1 0 0 1 82 12 )" />
  </g>
</svg>