<?xml version="1.0" standalone="no"?><!DOCTYPE svg PUBLIC "-//W3C//DTD SVG 1.1//EN" "http://www.w3.org/Graphics/SVG/1.1/DTD/svg11.dtd"><svg t="1702804543080" class="icon" viewBox="0 0 1024 1024" version="1.1" xmlns="http://www.w3.org/2000/svg" p-id="15537" xmlns:xlink="http://www.w3.org/1999/xlink" width="200" height="200"><path d="M512 512m-512 0a512 512 0 1 0 1024 0 512 512 0 1 0-1024 0Z" fill="#EDEEF5" p-id="15538"></path><path d="M666.947368 416c96-130.526316 77.473684 85.894737-11.789473 94.315789-140.631579 46.315789 11.789474-94.315789 11.789473-94.315789z" fill="#EFE7E6" p-id="15539"></path><path d="M387.368421 514.526316c4.210526 16 35.368421 81.684211-34.526316 184.421052s160.842105 158.315789 160.842106 158.31579 218.947368-74.105263 230.736842-110.31579c72.421053-61.473684-134.736842 0.842105-95.157895-225.68421-94.315789-59.789474-261.894737-6.736842-261.894737-6.736842z" fill="#EDE7E6" p-id="15540"></path><path d="M512 1024c186.408421 0 349.507368-99.644632 439.046737-248.549053-0.013474-0.235789-0.013474-0.498526-0.033684-0.714105-25.822316-39.296-203.230316-98.809263-272.842106-98.809263C540.072421 917.335579 353.684211 717.473684 357.052632 678.177684c-96.451368-6.629053-212.682105 63.023158-277.180632 108.288C170.738526 929.212632 330.246737 1024 512 1024z" fill="#586ABA" p-id="15541"></path><path d="M392.845474 554.105263c5.685895 20.210526 152.690526 157.473684 285.898105 123.789474-38.986105-48-25.175579-122.947368-22.743579-167.578948 13.803789-30.315789-259.098947 16.842105-263.154526 43.789474z" fill="#E3DCDB" p-id="15542"></path><path d="M530.526316 168.421053c54.736842 10.105263 131.368421 15.157895 141.473684 91.789473 106.947368 446.315789-371.368421 508.631579-309.894737 40.421053C393.263158 134.736842 530.526316 168.421053 530.526316 168.421053z" fill="#F7EDEB" p-id="15543"></path><path d="M415.056842 229.052632c29.648842 20.210526 89.505684 86.453895 234.630737 53.894736 12.422737 48.282947 6.211368 48.282947 39.808 99.368421 24.562526 8.421053 95.717053-233.263158-112.660211-266.105263C332.894316 78.315789 301.554526 293.052632 364.234105 370.526316c15.245474-16 3.388632-103.578947 50.822737-141.473684z" fill="#586ABA" p-id="15544"></path></svg>