<?xml version="1.0" encoding="utf-8"?>
<svg version="1.1" xmlns:xlink="http://www.w3.org/1999/xlink" width="21px" height="23px" xmlns="http://www.w3.org/2000/svg">
  <g transform="matrix(1 0 0 1 -80 -7 )">
    <path d="M 21 11.5  C 21 11.747311827957  20.8716216216216 11.9613316790736  20.6148648648649 12.1420595533499  L 5.57432432432432 22.7289081885856  C 5.31756756756757 22.9096360628619  5.01351351351351 23  4.66216216216216 23  C 4.31081081081081 23  4.00675675675676 22.9096360628619  3.75 22.7289081885856  L 0.385135135135135 20.3604218362283  C 0.128378378378379 20.179693961952  0 19.9656741108354  0 19.7183622828784  C 0 19.4710504549214  0.128378378378379 19.2570306038048  0.385135135135135 19.0763027295285  L 11.1486486486486 11.5  L 0.385135135135135 3.92369727047146  C 0.128378378378379 3.7429693961952  0 3.52894954507858  0 3.28163771712159  C 0 3.0343258891646  0.128378378378379 2.82030603804797  0.385135135135135 2.63957816377171  L 3.75 0.271091811414391  C 4.00675675675676 0.0903639371381296  4.31081081081081 0  4.66216216216216 0  C 5.01351351351351 0  5.31756756756757 0.0903639371381296  5.57432432432432 0.271091811414391  L 20.6148648648649 10.8579404466501  C 20.8716216216216 11.0386683209264  21 11.252688172043  21 11.5  Z " fill-rule="nonzero" fill="#333333" stroke="none" transform="matrix(1 0 0 1 80 7 )" />
  </g>
</svg>