<?xml version="1.0" encoding="utf-8"?>
<svg version="1.1" xmlns:xlink="http://www.w3.org/1999/xlink" width="18px" height="18px" xmlns="http://www.w3.org/2000/svg">
  <g transform="matrix(1 0 0 1 -1460 -17 )">
    <path d="M 10.39453125 14.89453125  C 10.46484375 14.82421875  10.5 14.734375  10.5 14.625  L 10.5 12.375  C 10.5 12.265625  10.46484375 12.17578125  10.39453125 12.10546875  C 10.32421875 12.03515625  10.234375 12  10.125 12  L 7.875 12  C 7.765625 12  7.67578125 12.03515625  7.60546875 12.10546875  C 7.53515625 12.17578125  7.5 12.265625  7.5 12.375  L 7.5 14.625  C 7.5 14.734375  7.53515625 14.82421875  7.60546875 14.89453125  C 7.67578125 14.96484375  7.765625 15  7.875 15  L 10.125 15  C 10.234375 15  10.32421875 14.96484375  10.39453125 14.89453125  Z M 13.353515625 7.69921875  C 13.451171875 7.41015625  13.5 7.09375  13.5 6.75  C 13.5 6.0625  13.283203125 5.42578125  12.849609375 4.83984375  C 12.416015625 4.25390625  11.875 3.80078125  11.2265625 3.48046875  C 10.578125 3.16015625  9.9140625 3  9.234375 3  C 7.3359375 3  5.88671875 3.83203125  4.88671875 5.49609375  C 4.76953125 5.68359375  4.80078125 5.84765625  4.98046875 5.98828125  L 6.52734375 7.16015625  C 6.58203125 7.20703125  6.65625 7.23046875  6.75 7.23046875  C 6.875 7.23046875  6.97265625 7.18359375  7.04296875 7.08984375  C 7.45703125 6.55859375  7.79296875 6.19921875  8.05078125 6.01171875  C 8.31640625 5.82421875  8.65234375 5.73046875  9.05859375 5.73046875  C 9.43359375 5.73046875  9.767578125 5.83203125  10.060546875 6.03515625  C 10.353515625 6.23828125  10.5 6.46875  10.5 6.7265625  C 10.5 7.0234375  10.421875 7.26171875  10.265625 7.44140625  C 10.109375 7.62109375  9.84375 7.796875  9.46875 7.96875  C 8.9765625 8.1875  8.525390625 8.525390625  8.115234375 8.982421875  C 7.705078125 9.439453125  7.5 9.9296875  7.5 10.453125  L 7.5 10.875  C 7.5 10.984375  7.53515625 11.07421875  7.60546875 11.14453125  C 7.67578125 11.21484375  7.765625 11.25  7.875 11.25  L 10.125 11.25  C 10.234375 11.25  10.32421875 11.21484375  10.39453125 11.14453125  C 10.46484375 11.07421875  10.5 10.984375  10.5 10.875  C 10.5 10.7265625  10.583984375 10.533203125  10.751953125 10.294921875  C 10.919921875 10.056640625  11.1328125 9.86328125  11.390625 9.71484375  C 11.640625 9.57421875  11.83203125 9.462890625  11.96484375 9.380859375  C 12.09765625 9.298828125  12.27734375 9.162109375  12.50390625 8.970703125  C 12.73046875 8.779296875  12.904296875 8.591796875  13.025390625 8.408203125  C 13.146484375 8.224609375  13.255859375 7.98828125  13.353515625 7.69921875  Z M 16.79296875 4.482421875  C 17.59765625 5.861328125  18 7.3671875  18 9  C 18 10.6328125  17.59765625 12.138671875  16.79296875 13.517578125  C 15.98828125 14.896484375  14.896484375 15.98828125  13.517578125 16.79296875  C 12.138671875 17.59765625  10.6328125 18  9 18  C 7.3671875 18  5.861328125 17.59765625  4.482421875 16.79296875  C 3.103515625 15.98828125  2.01171875 14.896484375  1.20703125 13.517578125  C 0.40234375 12.138671875  0 10.6328125  0 9  C 0 7.3671875  0.40234375 5.861328125  1.20703125 4.482421875  C 2.01171875 3.103515625  3.103515625 2.01171875  4.482421875 1.20703125  C 5.861328125 0.402343749999998  7.3671875 0  9 0  C 10.6328125 0  12.138671875 0.402343749999998  13.517578125 1.20703125  C 14.896484375 2.01171875  15.98828125 3.103515625  16.79296875 4.482421875  Z " fill-rule="nonzero" fill="#000000" stroke="none" transform="matrix(1 0 0 1 1460 17 )" />
  </g>
</svg>