<?xml version="1.0" encoding="utf-8"?>
<svg version="1.1" xmlns:xlink="http://www.w3.org/1999/xlink" width="18px" height="18px" xmlns="http://www.w3.org/2000/svg">
  <g transform="matrix(1 0 0 1 -1359 -17 )">
    <path d="M 17.6420454545455 6.90340909090909  C 17.8806818181818 7.14204545454545  18 7.43181818181818  18 7.77272727272727  L 18 10.2272727272727  C 18 10.5681818181818  17.8806818181818 10.8579545454545  17.6420454545455 11.0965909090909  C 17.4034090909091 11.3352272727273  17.1136363636364 11.4545454545455  16.7727272727273 11.4545454545455  L 11.4545454545455 11.4545454545455  L 11.4545454545455 16.7727272727273  C 11.4545454545455 17.1136363636364  11.3352272727273 17.4034090909091  11.0965909090909 17.6420454545455  C 10.8579545454545 17.8806818181818  10.5681818181818 18  10.2272727272727 18  L 7.77272727272727 18  C 7.43181818181818 18  7.14204545454546 17.8806818181818  6.90340909090909 17.6420454545455  C 6.66477272727273 17.4034090909091  6.54545454545455 17.1136363636364  6.54545454545455 16.7727272727273  L 6.54545454545455 11.4545454545455  L 1.22727272727273 11.4545454545455  C 0.886363636363636 11.4545454545455  0.596590909090909 11.3352272727273  0.357954545454545 11.0965909090909  C 0.119318181818182 10.8579545454545  0 10.5681818181818  0 10.2272727272727  L 0 7.77272727272727  C 0 7.43181818181818  0.119318181818182 7.14204545454545  0.357954545454545 6.90340909090909  C 0.596590909090909 6.66477272727273  0.886363636363636 6.54545454545455  1.22727272727273 6.54545454545455  L 6.54545454545455 6.54545454545455  L 6.54545454545455 1.22727272727273  C 6.54545454545455 0.886363636363636  6.66477272727273 0.596590909090908  6.90340909090909 0.357954545454546  C 7.14204545454546 0.119318181818181  7.43181818181818 0  7.77272727272727 0  L 10.2272727272727 0  C 10.5681818181818 0  10.8579545454545 0.119318181818181  11.0965909090909 0.357954545454546  C 11.3352272727273 0.596590909090908  11.4545454545455 0.886363636363636  11.4545454545455 1.22727272727273  L 11.4545454545455 6.54545454545455  L 16.7727272727273 6.54545454545455  C 17.1136363636364 6.54545454545455  17.4034090909091 6.66477272727273  17.6420454545455 6.90340909090909  Z " fill-rule="nonzero" fill="#000000" stroke="none" transform="matrix(1 0 0 1 1359 17 )" />
  </g>
</svg>