<svg version="1.1" id="Layer_1" xmlns="http://www.w3.org/2000/svg" xmlns:xlink="http://www.w3.org/1999/xlink" x="0px" y="0px"
	 width="100%" viewBox="0 0 1340 328" enable-background="new 0 0 1340 328" xml:space="preserve">
<g transform="translate(670,164) scale(1.0) translate(-670,-164)">
<path fill="#8755FF" opacity="1.000000" stroke="none"
	d="
M55.999374,298.832367
	C43.534565,298.832367 31.069752,298.832367 18.302393,298.832367
	C18.302393,209.672134 18.302393,120.638992 18.302393,31.023758
	C30.548222,31.023758 42.810204,31.023758 55.677956,31.412128
	C60.186012,33.349411 61.107445,36.170086 61.100624,40.318165
	C60.965500,122.505692 60.980927,204.693497 61.048115,286.881195
	C61.052071,291.719696 61.441826,296.428436 55.999374,298.832367
z"/>
<path fill="#6A73F9" opacity="1.000000" stroke="none"
	d="
M328.000336,286.832855
	C308.853241,275.267700 295.792297,258.962616 290.072937,237.221924
	C288.467987,231.121124 287.153046,224.726028 287.130432,218.460785
	C286.912659,158.152206 286.999908,97.842522 286.999847,37.533157
	C286.999847,35.559135 286.999817,33.585114 286.999817,31.024338
	C300.549255,31.024338 313.810455,31.024338 327.535736,31.553986
	C327.999969,117.000038 328.000153,201.916443 328.000336,286.832855
z"/>
<path fill="#33ABED" opacity="1.000000" stroke="none"
	d="
M850.000122,298.832977
	C838.202637,298.832977 826.405090,298.832977 814.304871,298.832977
	C814.304871,209.670166 814.304871,120.641335 814.304871,31.022194
	C825.882874,31.022194 837.477722,31.022194 849.447388,31.492317
	C849.548096,34.259907 849.035583,36.557259 849.034485,38.854855
	C848.993469,122.890480 848.990906,206.926117 849.041992,290.961731
	C849.043579,293.585663 849.666809,296.209229 850.000122,298.832977
z"/>
<path fill="#6677F8" opacity="1.000000" stroke="none"
	d="
M328.321533,286.987732
	C328.000153,201.916443 327.999969,117.000038 327.999512,31.625675
	C339.356689,31.119539 350.714172,31.071362 362.526428,31.510811
	C362.654114,36.628368 362.045563,41.258064 362.041748,45.888260
	C361.971558,130.631927 361.973846,215.375671 361.960785,300.119385
	C349.989258,298.015991 338.802246,293.898407 328.321533,286.987732
z"/>
<path fill="#30AFED" opacity="1.000000" stroke="none"
	d="
M850.463989,298.904633
	C849.666809,296.209229 849.043579,293.585663 849.041992,290.961731
	C848.990906,206.926117 848.993469,122.890480 849.034485,38.854855
	C849.035583,36.557259 849.548096,34.259907 849.911011,31.564739
	C860.357422,31.119249 870.714966,31.071459 881.447144,31.493763
	C881.547852,34.594357 881.037537,37.224632 881.035034,39.855389
	C880.987488,89.448219 880.999939,139.041107 881.000427,188.633987
	C881.000488,189.798904 881.065857,190.967148 880.999390,192.128052
	C880.842468,194.868759 882.067505,196.181183 884.791870,196.359421
	C876.373474,216.238129 867.995605,235.756714 859.234985,256.166992
	C866.154785,256.166992 872.077576,256.166992 877.904663,256.530670
	C877.206055,259.416595 876.153442,261.926392 876.083435,264.463348
	C875.859558,272.572418 875.809937,280.698090 876.091309,288.803558
	C876.207947,292.164734 877.333252,295.490906 877.999878,298.833008
	C868.975830,298.880768 859.951782,298.928528 850.463989,298.904633
z"/>
<path fill="#4F8FF3" opacity="1.000000" stroke="none"
	d="
M582.999512,298.833344
	C573.201782,298.833344 563.403992,298.833344 553.303955,298.833344
	C553.303955,209.667923 553.303955,120.642479 553.303955,31.022987
	C562.880493,31.022987 572.476257,31.022987 582.452515,31.463264
	C582.221985,35.292721 581.081665,38.681255 581.077576,42.071171
	C580.978027,123.609840 580.971436,205.148712 581.085022,286.687347
	C581.090698,290.736877 582.333008,294.784729 582.999512,298.833344
z"/>
<path fill="#5885F5" opacity="1.000000" stroke="none"
	d="
M471.000244,31.167515
	C480.468048,31.167513 489.935852,31.167513 499.999817,31.167513
	C499.999817,33.240723 499.999847,35.176483 499.999847,37.112240
	C499.999847,95.608795 500.262390,154.107147 499.864716,212.600998
	C499.715271,234.583801 493.180939,254.688065 477.489868,270.991974
	C475.603180,272.952332 473.651581,274.850250 471.169952,276.575317
	C470.406555,274.073700 470.026550,271.773865 470.025604,269.473938
	C469.994598,194.170166 469.984222,118.866386 470.042694,43.562672
	C470.045898,39.430706 470.666840,35.299221 471.000244,31.167515
z"/>
<path fill="#4C91F3" opacity="1.000000" stroke="none"
	d="
M583.463379,298.904907
	C582.333008,294.784729 581.090698,290.736877 581.085022,286.687347
	C580.971436,205.148712 580.978027,123.609840 581.077576,42.071171
	C581.081665,38.681255 582.221985,35.292721 582.916199,31.535107
	C590.357056,31.119059 597.714722,31.071449 605.536133,31.553667
	C606.000000,97.160492 605.988892,162.237503 606.047058,227.314438
	C606.049072,229.556381 606.744690,231.797684 607.065918,234.421539
	C604.160095,241.799805 601.305420,248.795822 598.297485,256.167480
	C601.042297,256.167480 603.521179,256.167480 605.910645,256.565247
	C605.547485,265.017242 605.074158,273.071259 605.066406,281.125732
	C605.060791,287.027679 605.666321,292.930237 605.999451,298.832520
	C598.642029,298.880524 591.284607,298.928528 583.463379,298.904907
z"/>
<path fill="#7C60FC" opacity="1.000000" stroke="none"
	d="
M153.999252,297.833191
	C144.308578,298.215088 134.617920,298.597015 124.495804,298.497192
	C124.042686,284.065552 124.021019,270.115601 124.462677,256.093384
	C130.513428,256.021088 136.100861,256.021088 141.696106,256.021088
	C141.696106,249.695267 141.696106,243.974274 141.696106,237.834061
	C138.263031,237.834061 135.131454,237.834061 131.999939,237.375885
	C132.000000,192.796371 132.026505,148.674988 131.956436,104.553772
	C131.949890,100.424179 131.333282,96.295555 131.457291,92.094299
	C135.160751,92.022125 138.406860,92.022125 141.756958,92.022125
	C141.756958,85.774872 141.756958,80.084633 141.756958,74.415146
	C137.355347,73.967293 133.196365,73.544128 129.056000,72.693069
	C129.383072,68.986977 129.921356,65.711319 129.957504,62.430126
	C130.072342,52.009716 129.999954,41.587238 129.999939,31.165560
	C137.716125,31.450647 145.432297,31.735737 153.574066,32.552002
	C153.999512,121.333183 153.999374,209.583191 153.999252,297.833191
z"/>
<path fill="#8359FE" opacity="1.000000" stroke="none"
	d="
M56.463120,298.904846
	C61.441826,296.428436 61.052071,291.719696 61.048115,286.881195
	C60.980927,204.693497 60.965500,122.505692 61.100624,40.318165
	C61.107445,36.170086 60.186012,33.349411 56.141697,31.484070
	C65.690193,31.119572 75.380722,31.071503 85.567513,31.504488
	C86.375832,34.948139 86.929909,37.908516 86.957138,40.873730
	C87.062553,52.353985 86.949417,63.836220 87.050110,75.316559
	C87.066887,77.228584 87.742302,79.134842 87.969780,81.364120
	C79.628136,90.753044 78.889671,101.819458 78.943390,113.293434
	C79.101677,147.101990 79.176270,180.913147 78.907272,214.720306
	C78.808868,227.087982 79.659920,238.916275 88.031693,249.359039
	C88.014816,262.568359 88.078773,275.302460 87.954086,288.034729
	C87.918808,291.636932 87.332291,295.233704 86.998581,298.832977
	C76.974678,298.881104 66.950775,298.929230 56.463120,298.904846
z"/>
<path fill="#7A63FC" opacity="1.000000" stroke="none"
	d="
M154.414764,297.905182
	C153.999374,209.583191 153.999512,121.333183 153.999451,32.625175
	C160.743469,33.780636 167.487686,35.394093 174.647827,37.495911
	C175.375839,41.115063 175.958099,44.245647 175.960556,47.376686
	C176.024689,128.956497 176.028610,210.536377 176.042908,292.116241
	C168.972031,294.069885 161.901138,296.023529 154.414764,297.905182
z"/>
<path fill="#08D8E5" opacity="1.000000" stroke="none"
	d="
M1232.001343,31.166403
	C1238.779663,33.727531 1245.558105,36.288662 1252.668213,39.466358
	C1252.999878,123.666489 1252.999756,207.250046 1252.999756,290.833618
	C1246.634644,293.224274 1240.269409,295.614929 1233.227051,297.753357
	C1232.033081,294.788940 1231.067871,292.077209 1231.065186,289.364563
	C1230.985107,207.428604 1230.985352,125.492554 1231.042480,43.556561
	C1231.045410,39.426285 1231.667480,35.296444 1232.001343,31.166403
z"/>
<path fill="#27B8EB" opacity="1.000000" stroke="none"
	d="
M966.999939,296.834045
	C960.303894,297.548309 953.607849,298.262604 946.455933,298.447083
	C946.000122,238.515701 946.013245,179.114151 945.955750,119.712669
	C945.953247,117.103691 945.304260,114.495338 944.976257,111.506004
	C950.010986,98.952744 955.025879,86.780182 960.359802,73.833305
	C955.159363,73.833305 950.580017,73.833305 945.911194,73.435501
	C945.547791,64.983147 945.074097,56.928783 945.066467,48.873970
	C945.060913,42.971848 945.667297,37.069141 946.000977,31.166695
	C953.232117,31.861963 960.463135,32.557228 967.652710,33.939026
	C967.407532,36.924515 967.026428,39.223408 967.025635,41.522434
	C966.995239,126.626297 966.999939,211.730179 966.999939,296.834045
z"/>
<path fill="#637AF7" opacity="1.000000" stroke="none"
	d="
M362.174561,300.461914
	C361.973846,215.375671 361.971558,130.631927 362.041748,45.888260
	C362.045563,41.258064 362.654114,36.628368 362.990173,31.582325
	C370.023529,31.118542 377.047882,31.070871 384.536102,31.552937
	C385.000000,52.999577 385.000000,73.916481 384.547485,94.905083
	C381.494812,94.976784 378.894592,94.976784 376.294067,94.976784
	C376.294067,106.974586 376.294067,118.363647 376.294067,130.166565
	C379.057190,130.166565 381.528351,130.166565 383.999725,130.624695
	C383.999756,149.999695 383.999603,168.916565 383.551575,187.904968
	C380.841858,187.976501 378.580048,187.976501 376.287842,187.976501
	C376.287842,199.973663 376.287842,211.372162 376.287842,222.845901
	C378.713898,222.961914 380.856903,223.064392 383.000000,223.625061
	C382.987885,250.429413 382.975708,276.775574 382.963501,303.121704
	C376.105133,302.349274 369.246735,301.576843 362.174561,300.461914
z"/>
<path fill="#4A94F2" opacity="1.000000" stroke="none"
	d="
M607.117004,234.039307
	C606.744690,231.797684 606.049072,229.556381 606.047058,227.314438
	C605.988892,162.237503 606.000000,97.160492 605.999878,31.625526
	C616.357300,31.119429 626.714783,31.071299 637.503784,31.504372
	C637.623962,34.278625 637.044739,36.571270 637.041199,38.864792
	C636.984680,75.906784 636.952209,112.949059 637.092957,149.990601
	C637.104431,153.009491 638.412720,156.023453 639.060059,159.416229
	C638.349609,161.437241 637.724243,163.092896 637.041260,164.724411
	C631.612671,177.692673 626.266357,190.696442 620.707458,203.608673
	C616.315002,213.811493 611.657043,223.900009 607.117004,234.039307
z"/>
<path fill="#3F9FF0" opacity="1.000000" stroke="none"
	d="
M726.999451,288.833374
	C720.260742,291.541840 713.522034,294.250305 706.391663,296.437805
	C706.000000,211.349960 705.990051,126.783066 706.043823,42.216221
	C706.045593,39.439560 706.695251,36.663307 707.042847,33.886856
	C713.477234,36.542183 719.911560,39.197517 726.583862,42.407536
	C726.547852,45.259438 726.035706,47.556530 726.034485,49.853901
	C725.992859,126.890259 725.990173,203.926651 726.042053,280.963013
	C726.043823,283.586670 726.666321,286.209930 726.999451,288.833374
z"/>
<path fill="#22BDEA" opacity="1.000000" stroke="none"
	d="
M1002.042419,154.114685
	C1002.030518,154.508148 1002.018616,154.901627 1002.015137,156.065857
	C1002.015747,195.327393 1001.991943,233.818192 1002.047302,272.308868
	C1002.050110,274.221191 1002.741699,276.132538 1003.112549,278.044312
	C996.665955,282.364197 990.219299,286.684113 983.397217,290.584991
	C983.014526,206.499374 983.007263,122.832809 983.000000,39.166245
	C989.617249,44.251724 996.234497,49.337196 1002.633789,55.276215
	C1002.277954,57.776981 1002.020203,59.424160 1002.019653,61.071430
	C1002.009033,92.085846 1002.028992,123.100266 1002.042419,154.114685
z"/>
<path fill="#5B83F6" opacity="1.000000" stroke="none"
	d="
M470.537415,31.095842
	C470.666840,35.299221 470.045898,39.430706 470.042694,43.562672
	C469.984222,118.866386 469.994598,194.170166 470.025604,269.473938
	C470.026550,271.773865 470.406555,274.073700 470.857147,276.711975
	C465.301697,281.290222 459.498993,285.530060 453.348083,289.343689
	C452.999939,207.131638 452.985413,125.345779 453.042572,43.559967
	C453.045441,39.428825 453.667084,35.298115 454.000610,31.167206
	C459.358582,31.119526 464.716583,31.071848 470.537415,31.095842
z"/>
<path fill="#429DF0" opacity="1.000000" stroke="none"
	d="
M706.835327,33.546608
	C706.695251,36.663307 706.045593,39.439560 706.043823,42.216221
	C705.990051,126.783066 706.000000,211.349960 706.000305,296.374817
	C701.285461,297.547546 696.570251,298.262268 691.395447,298.496002
	C690.623901,294.882141 690.042603,291.749481 690.039856,288.616333
	C689.986084,227.974731 690.011963,167.333069 689.952820,106.691490
	C689.950684,104.447433 689.254517,102.204048 688.933228,99.578033
	C692.289062,90.990189 695.593445,82.784676 699.198425,73.832748
	C695.839172,73.832748 692.919678,73.832748 689.967896,73.423241
	C689.623718,64.963852 689.101746,56.914799 689.069946,48.863811
	C689.046631,42.965946 689.666992,37.065544 690.000488,31.166271
	C695.542908,31.846298 701.085327,32.526325 706.835327,33.546608
z"/>
<path fill="#7765FB" opacity="1.000000" stroke="none"
	d="
M176.418884,292.059143
	C176.028610,210.536377 176.024689,128.956497 175.960556,47.376686
	C175.958099,44.245647 175.375839,41.115063 175.031204,37.574833
	C180.919571,40.194241 186.840500,43.223080 192.892410,47.044258
	C193.015594,122.130562 193.008331,196.424530 192.998459,270.718506
	C192.997940,274.519196 192.974991,278.319916 192.962494,282.120605
	C188.470749,285.081879 183.995636,288.068970 179.471497,290.979889
	C178.685471,291.485626 177.692337,291.669464 176.418884,292.059143
z"/>
<path fill="#24BBEA" opacity="1.000000" stroke="none"
	d="
M982.665771,39.004272
	C983.007263,122.832809 983.014526,206.499374 983.030457,290.642120
	C977.953796,293.065948 972.868469,295.013611 967.391541,296.897675
	C966.999939,211.730179 966.995239,126.626297 967.025635,41.522434
	C967.026428,39.223408 967.407532,36.924515 967.858765,34.287312
	C972.848083,35.580151 977.589844,37.211231 982.665771,39.004272
z"/>
<path fill="#17C9E8" opacity="1.000000" stroke="none"
	d="
M1107.890503,277.046997
	C1102.650513,271.925201 1097.410522,266.803406 1092.228027,261.102692
	C1089.027954,249.680359 1090.029907,238.534561 1090.019653,227.475601
	C1089.974365,178.555603 1090.015991,129.635529 1089.955444,80.715553
	C1089.952148,78.106750 1089.302979,75.498749 1088.954468,72.890381
	C1090.447144,70.621918 1091.625854,68.043907 1093.495361,66.146881
	C1097.927490,61.649734 1102.687500,57.475670 1107.799072,53.421509
	C1108.522095,55.637829 1108.968994,57.603546 1108.969971,59.569489
	C1109.005737,130.151550 1109.008545,200.733627 1108.953369,271.315674
	C1108.951904,273.226379 1108.260254,275.136597 1107.890503,277.046997
z"/>
<path fill="#11CEE7" opacity="1.000000" stroke="none"
	d="
M1166.000122,301.832123
	C1161.903687,300.951172 1157.807129,300.070251 1153.355347,298.553467
	C1153.000000,211.960464 1153.010010,126.003273 1152.957886,40.046146
	C1152.956055,37.086140 1152.333740,34.126511 1152.000732,31.166695
	C1157.367188,30.106113 1162.733521,29.045540 1168.539062,28.410074
	C1169.318970,43.834488 1169.659790,58.833797 1169.546631,73.905960
	C1166.159912,73.978806 1163.227295,73.978806 1160.292603,73.978806
	C1160.292603,80.307884 1160.292603,86.042206 1160.292603,92.167648
	C1163.053589,92.167648 1165.526855,92.167648 1168.000122,92.625732
	C1168.000000,141.333130 1168.000000,189.582443 1167.552002,237.904785
	C1164.839722,237.977814 1162.575562,237.977814 1160.275024,237.977814
	C1160.275024,244.314651 1160.275024,250.067825 1160.275024,255.846527
	C1162.364990,255.963989 1164.182739,256.066162 1166.000244,256.626404
	C1166.000000,272.000397 1166.000122,286.916260 1166.000122,301.832123
z"/>
<path fill="#2DB2EC" opacity="1.000000" stroke="none"
	d="
M884.832397,195.999329
	C882.067505,196.181183 880.842468,194.868759 880.999390,192.128052
	C881.065857,190.967148 881.000488,189.798904 881.000427,188.633987
	C880.999939,139.041107 880.987488,89.448219 881.035034,39.855389
	C881.037537,37.224632 881.547852,34.594357 881.910767,31.566273
	C890.024109,31.119829 898.048523,31.070967 906.536499,31.552574
	C907.000000,64.105743 907.004639,96.128441 906.992737,128.151138
	C906.991638,131.180893 906.607178,134.367218 910.796387,135.356506
	C902.116821,155.809067 893.474609,175.904205 884.832397,195.999329
z"/>
<path fill="#19C6E8" opacity="1.000000" stroke="none"
	d="
M1088.636597,73.031273
	C1089.302979,75.498749 1089.952148,78.106750 1089.955444,80.715553
	C1090.015991,129.635529 1089.974365,178.555603 1090.019653,227.475601
	C1090.029907,238.534561 1089.027954,249.680359 1092.088867,260.785675
	C1083.592651,252.681168 1078.497437,242.269699 1074.123901,231.630280
	C1066.876953,214.001404 1063.963989,195.489471 1062.769287,176.412338
	C1061.201416,151.376099 1063.709717,127.007553 1072.264404,103.599640
	C1076.164917,92.926865 1082.880127,83.282822 1088.636597,73.031273
z"/>
<path fill="#449AF1" opacity="1.000000" stroke="none"
	d="
M688.881775,99.960358
	C689.254517,102.204048 689.950684,104.447433 689.952820,106.691490
	C690.011963,167.333069 689.986084,227.974731 690.039856,288.616333
	C690.042603,291.749481 690.623901,294.882141 690.968140,298.424408
	C684.309692,298.881348 677.618896,298.928894 670.464111,298.446838
	C670.000061,249.838867 670.015015,201.760498 669.952576,153.682205
	C669.949646,151.441284 669.255005,149.201248 668.933960,146.578537
	C670.993652,141.257965 672.906860,136.278397 675.029663,131.389832
	C679.589783,120.888474 684.257874,110.434006 688.881775,99.960358
z"/>
<path fill="#7568FB" opacity="1.000000" stroke="none"
	d="
M209.109344,58.954437
	C214.737030,65.694824 220.364716,72.435204 225.932068,79.947144
	C225.581482,82.846474 225.039749,84.974007 225.037781,87.102028
	C224.990631,138.299271 224.973434,189.496643 225.078873,240.693710
	C225.084457,243.410553 226.214615,246.125076 226.821259,248.840683
	C220.786514,256.490143 214.751770,264.139618 208.162918,271.580963
	C207.406113,269.906860 207.026733,268.440948 207.026093,266.974915
	C206.997116,199.546051 206.983841,132.117157 207.089798,64.688461
	C207.092804,62.776066 208.406693,60.865730 209.109344,58.954437
z"/>
<path fill="#5F7EF6" opacity="1.000000" stroke="none"
	d="
M415.000000,31.166855
	C419.359863,31.119272 423.719696,31.071692 428.450592,31.493484
	C428.547913,34.096867 428.035828,36.230762 428.034821,38.364902
	C427.994385,123.346184 427.993011,208.327484 428.046448,293.308746
	C428.047668,295.221497 428.739075,297.133759 429.108521,299.046265
	C424.687134,300.023010 420.265747,300.999756 415.422180,301.446777
	C415.000000,211.000336 415.000000,121.083595 415.000000,31.166855
z"/>
<path fill="#5D80F6" opacity="1.000000" stroke="none"
	d="
M429.504517,299.025330
	C428.739075,297.133759 428.047668,295.221497 428.046448,293.308746
	C427.993011,208.327484 427.994385,123.346184 428.034821,38.364902
	C428.035828,36.230762 428.547913,34.096867 428.910400,31.565191
	C433.026978,31.119602 437.054810,31.071682 441.452148,31.493187
	C441.547852,34.260059 441.035736,36.557388 441.034607,38.854973
	C440.993530,121.557213 440.990936,204.259476 441.042145,286.961700
	C441.043762,289.585632 441.666412,292.209167 441.999542,294.832886
	C437.966553,296.223389 433.933533,297.613892 429.504517,299.025330
z"/>
<path fill="#04DCE4" opacity="1.000000" stroke="none"
	d="
M1282.113892,58.956291
	C1287.077515,64.718674 1292.041260,70.481033 1296.808594,76.935242
	C1296.408081,79.424515 1296.026733,81.221855 1296.025757,83.019424
	C1295.994141,137.094559 1295.985474,191.169708 1296.044434,245.244781
	C1296.047241,247.868408 1296.694946,250.491364 1297.042480,253.114624
	C1296.268066,254.342163 1295.493774,255.569717 1294.155762,256.970154
	C1293.432495,257.776611 1293.273071,258.410187 1293.113647,259.043762
	C1290.987061,261.623230 1288.860474,264.202728 1286.055176,266.922302
	C1283.482788,267.805878 1281.588989,268.549408 1279.000000,269.565948
	C1279.000000,266.966156 1279.000000,265.000885 1279.000000,263.035583
	C1279.000000,197.384247 1278.999878,131.732910 1279.001465,66.081566
	C1279.001465,64.748688 1278.630737,63.235054 1279.139038,62.130810
	C1279.714355,60.881004 1281.087646,59.998497 1282.113892,58.956291
z"/>
<path fill="#29B6EB" opacity="1.000000" stroke="none"
	d="
M944.956421,111.886703
	C945.304260,114.495338 945.953247,117.103691 945.955750,119.712669
	C946.013245,179.114151 946.000122,238.515701 946.000610,298.375275
	C939.976379,298.881042 933.951782,298.928802 927.431396,298.495087
	C926.623779,295.047943 926.044556,292.082642 926.040222,289.116486
	C925.980652,247.974884 926.017517,206.833145 925.952454,165.691544
	C925.948914,163.447464 925.255981,161.204468 924.935303,158.578522
	C928.425476,149.893936 931.778137,141.554688 935.329346,133.300873
	C938.421997,126.112740 941.738708,119.021011 944.956421,111.886703
z"/>
<path fill="#0AD5E5" opacity="1.000000" stroke="none"
	d="
M1231.596680,31.092541
	C1231.667480,35.296444 1231.045410,39.426285 1231.042480,43.556561
	C1230.985352,125.492554 1230.985107,207.428604 1231.065186,289.364563
	C1231.067871,292.077209 1232.033081,294.788940 1232.828003,297.775696
	C1227.681641,299.359619 1222.256836,300.668915 1216.416016,301.447632
	C1215.986694,282.573425 1215.973389,264.229736 1216.098022,245.567520
	C1221.234863,239.787842 1222.853149,232.911102 1222.890869,225.975540
	C1223.113037,185.259308 1223.099609,144.540817 1222.925537,103.824127
	C1222.885254,94.394020 1219.338501,86.146835 1211.969116,79.423004
	C1211.624268,76.072510 1211.006836,73.126831 1211.051758,70.191277
	C1211.271240,55.848633 1211.667358,41.508694 1212.000977,27.167797
	C1218.397949,28.451424 1224.794922,29.735050 1231.596680,31.092541
z"/>
<path fill="#7666FB" opacity="1.000000" stroke="none"
	d="
M208.971512,58.642517
	C208.406693,60.865730 207.092804,62.776066 207.089798,64.688461
	C206.983841,132.117157 206.997116,199.546051 207.026093,266.974915
	C207.026733,268.440948 207.406113,269.906860 207.855804,271.711365
	C203.174973,275.594543 198.247116,279.139221 193.140869,282.402252
	C192.974991,278.319916 192.997940,274.519196 192.998459,270.718506
	C193.008331,196.424530 193.015594,122.130562 193.032806,47.360649
	C198.306015,50.700001 203.569855,54.515301 208.971512,58.642517
z"/>
<path fill="#15CBE7" opacity="1.000000" stroke="none"
	d="
M1114.958130,47.886414
	C1118.386353,45.670097 1121.814575,43.453804 1125.930908,41.255684
	C1127.079224,43.614059 1127.935181,45.952965 1127.942871,48.294659
	C1128.203979,127.717072 1128.389526,207.139725 1128.523804,286.562500
	C1128.525513,287.596619 1127.727173,288.632111 1127.302246,289.666901
	C1122.601318,287.006317 1117.900513,284.345764 1113.322510,281.093903
	C1113.963501,278.289246 1114.932129,276.076263 1114.934082,273.862396
	C1114.998901,198.537125 1114.971924,123.211777 1114.958130,47.886414
z"/>
<path fill="#5C82F6" opacity="1.000000" stroke="none"
	d="
M442.365570,294.898682
	C441.666412,292.209167 441.043762,289.585632 441.042145,286.961700
	C440.990936,204.259476 440.993530,121.557213 441.034607,38.854973
	C441.035736,36.557388 441.547852,34.260059 441.910553,31.564934
	C445.695801,31.119465 449.392242,31.071674 453.544617,31.095545
	C453.667084,35.298115 453.045441,39.428825 453.042572,43.559967
	C452.985413,125.345779 452.999939,207.131638 452.999634,289.375519
	C449.576782,291.543854 446.154205,293.254150 442.365570,294.898682
z"/>
<path fill="#4698F1" opacity="1.000000" stroke="none"
	d="
M639.118408,159.039673
	C638.412720,156.023453 637.104431,153.009491 637.092957,149.990601
	C636.952209,112.949059 636.984680,75.906784 637.041199,38.864792
	C637.044739,36.571270 637.623962,34.278625 637.967529,31.576221
	C648.024048,31.118784 658.048279,31.070700 668.504028,31.503992
	C668.624878,34.102791 668.057434,36.218731 668.045227,38.337875
	C667.965027,52.228951 667.921082,66.121674 668.080933,80.011391
	C668.110413,82.575188 669.122559,85.127678 669.487793,87.925720
	C659.235840,111.790596 649.177124,135.415131 639.118408,159.039673
z"/>
<path fill="#3EA0F0" opacity="1.000000" stroke="none"
	d="
M727.346985,288.802673
	C726.666321,286.209930 726.043823,283.586670 726.042053,280.963013
	C725.990173,203.926651 725.992859,126.890259 726.034485,49.853901
	C726.035706,47.556530 726.547852,45.259438 726.910461,42.564476
	C730.662964,45.499218 734.326782,48.831699 738.007141,53.000748
	C738.015808,126.993927 737.989136,200.150558 738.088867,273.307007
	C738.091919,275.553375 739.408936,277.798004 740.113342,280.043396
	C735.973694,282.952942 731.834106,285.862457 727.346985,288.802673
z"/>
<path fill="#726AFA" opacity="1.000000" stroke="none"
	d="
M227.010101,248.553833
	C226.214615,246.125076 225.084457,243.410553 225.078873,240.693710
	C224.973434,189.496643 224.990631,138.299271 225.037781,87.102028
	C225.039749,84.974007 225.581482,82.846474 225.957550,80.301727
	C233.561935,89.305336 238.116577,100.298058 240.789978,111.765862
	C243.698090,124.240440 245.314636,137.049118 246.939011,149.782944
	C250.097855,174.546173 246.706238,198.840073 239.525925,222.483139
	C236.789200,231.494507 231.386612,239.696274 227.010101,248.553833
z"/>
<path fill="#13CCE7" opacity="1.000000" stroke="none"
	d="
M1127.625244,289.821716
	C1127.727173,288.632111 1128.525513,287.596619 1128.523804,286.562500
	C1128.389526,207.139725 1128.203979,127.717072 1127.942871,48.294659
	C1127.935181,45.952965 1127.079224,43.614059 1126.253174,41.116032
	C1129.654907,39.301083 1133.422119,37.643959 1137.736572,36.329807
	C1138.522583,38.638683 1138.969116,40.604504 1138.969971,42.570515
	C1139.005005,124.141609 1139.008423,205.712708 1138.956299,287.283783
	C1138.954834,289.561340 1138.306152,291.838501 1137.959229,294.115845
	C1134.622192,292.736053 1131.285156,291.356293 1127.625244,289.821716
z"/>
<path fill="#4699F1" opacity="1.000000" stroke="none"
	d="
M668.882568,146.960785
	C669.255005,149.201248 669.949646,151.441284 669.952576,153.682205
	C670.015015,201.760498 670.000061,249.838867 670.000427,298.375244
	C663.643066,298.880920 657.285278,298.928619 650.463745,298.446594
	C650.000000,265.503357 650.022034,233.089798 649.951904,200.676437
	C649.947083,198.437088 649.255127,196.199234 648.941284,193.582489
	C651.003235,188.263138 652.908264,183.279282 655.030396,178.389618
	C659.588440,167.887619 664.258423,157.434158 668.882568,146.960785
z"/>
<path fill="#06D9E4" opacity="1.000000" stroke="none"
	d="
M1253.353760,290.801819
	C1252.999756,207.250046 1252.999878,123.666489 1253.000000,39.624859
	C1256.922363,41.194633 1260.844727,43.222473 1264.738403,45.924644
	C1264.139893,49.657463 1263.076782,52.715275 1263.072632,55.774559
	C1262.978027,124.255219 1262.965942,192.736084 1263.045898,261.216766
	C1263.055176,269.182983 1263.694946,277.148438 1264.042358,285.114258
	C1260.597412,286.999512 1257.152588,288.884766 1253.353760,290.801819
z"/>
<path fill="#12CDE7" opacity="1.000000" stroke="none"
	d="
M1151.615479,31.100883
	C1152.333740,34.126511 1152.956055,37.086140 1152.957886,40.046146
	C1153.010010,126.003273 1153.000000,211.960464 1153.000244,298.375732
	C1149.916504,298.194489 1146.832275,297.555176 1143.790039,296.351746
	C1144.220581,294.051453 1144.948242,292.315491 1144.949463,290.579041
	C1145.005615,207.348770 1145.015503,124.118454 1144.913574,40.888271
	C1144.910767,38.554203 1143.636597,36.221695 1142.955200,33.888470
	C1145.713501,32.937340 1148.471924,31.986202 1151.615479,31.100883
z"/>
<path fill="#05DAE4" opacity="1.000000" stroke="none"
	d="
M1264.358521,284.974640
	C1263.694946,277.148438 1263.055176,269.182983 1263.045898,261.216766
	C1262.965942,192.736084 1262.978027,124.255219 1263.072632,55.774559
	C1263.076782,52.715275 1264.139893,49.657463 1264.879272,46.245415
	C1267.476685,47.543671 1269.904663,49.195488 1272.634033,51.416351
	C1272.623657,55.117188 1272.041992,58.248775 1272.039673,61.380795
	C1271.987793,130.827316 1272.012573,200.273911 1271.959473,269.720428
	C1271.957031,272.852020 1271.361206,275.983185 1271.041870,279.114532
	C1268.919434,281.021362 1266.797119,282.928192 1264.358521,284.974640
z"/>
<path fill="#607EF7" opacity="1.000000" stroke="none"
	d="
M414.550476,31.095245
	C415.000000,121.083595 415.000000,211.000336 414.999939,301.375092
	C412.283020,302.214081 409.566132,302.595062 406.424652,302.446594
	C406.000061,275.667053 406.000092,249.416931 406.440186,223.094986
	C408.138397,223.023163 409.396545,223.023163 410.713989,223.023163
	C410.713989,211.070755 410.713989,199.611481 410.713989,188.155594
	C408.953308,188.035263 407.476959,187.934357 406.000366,187.375427
	C406.000305,168.000534 406.000488,149.083679 406.440674,130.094986
	C408.138794,130.023163 409.396851,130.023163 410.713806,130.023163
	C410.713806,118.070404 410.713806,106.611191 410.713806,95.155449
	C408.952942,95.035065 407.476562,94.934128 406.000061,94.374992
	C406.000000,82.111626 406.126221,70.304680 405.959259,58.501873
	C405.830322,49.387421 405.333740,40.278168 405.000610,31.166603
	C408.034058,31.118948 411.067535,31.071291 414.550476,31.095245
z"/>
<path fill="#3DA2EF" opacity="1.000000" stroke="none"
	d="
M740.418884,279.914062
	C739.408936,277.798004 738.091919,275.553375 738.088867,273.307007
	C737.989136,200.150558 738.015808,126.993927 738.033081,53.361435
	C742.286926,57.360310 746.531372,61.835075 750.420898,66.688705
	C746.453735,67.651276 747.023987,70.496338 747.020264,72.901611
	C746.987610,94.000259 746.940430,115.099403 747.082458,136.197159
	C747.099670,138.749252 748.213562,141.293976 748.819153,143.842102
	C746.009705,147.509506 743.200317,151.176910 740.958252,154.103638
	C744.119385,157.970810 746.527588,160.916916 748.552490,164.540222
	C747.780884,166.781891 747.056702,168.345688 747.053406,169.910995
	C746.987427,201.781143 746.975098,233.651581 747.093689,265.521423
	C747.099304,267.029053 748.414551,268.531830 749.119812,270.036865
	C746.321350,273.286163 743.522888,276.535431 740.418884,279.914062
z"/>
<path fill="#02DEE3" opacity="1.000000" stroke="none"
	d="
M1297.365723,252.968765
	C1296.694946,250.491364 1296.047241,247.868408 1296.044434,245.244781
	C1295.985474,191.169708 1295.994141,137.094559 1296.025757,83.019424
	C1296.026733,81.221855 1296.408081,79.424515 1296.860107,77.289307
	C1301.062256,84.056160 1305.016357,91.160782 1308.561279,98.809052
	C1307.768433,100.897888 1307.051514,102.442581 1307.049194,103.988358
	C1306.987915,144.585022 1306.977783,185.181870 1307.078003,225.778336
	C1307.082397,227.519897 1308.222046,229.258621 1308.832764,230.998672
	C1305.118042,238.273422 1301.403442,245.548157 1297.365723,252.968765
z"/>
<path fill="#2AB4EC" opacity="1.000000" stroke="none"
	d="
M924.883911,158.960968
	C925.255981,161.204468 925.948914,163.447464 925.952454,165.691544
	C926.017517,206.833145 925.980652,247.974884 926.040222,289.116486
	C926.044556,292.082642 926.623779,295.047943 926.968140,298.422943
	C923.304321,298.880280 919.608154,298.928345 915.374695,298.533081
	C914.224976,294.188690 913.100159,290.290070 913.081299,286.386108
	C912.934204,255.982620 913.021790,225.578064 912.951965,195.174011
	C912.947205,193.101959 912.254578,191.031494 911.939697,188.587036
	C912.668091,186.598007 913.305603,184.967499 914.015015,183.368958
	C917.627747,175.228409 921.259033,167.096130 924.883911,158.960968
z"/>
<path fill="#05DBE4" opacity="1.000000" stroke="none"
	d="
M1271.421997,279.063538
	C1271.361206,275.983185 1271.957031,272.852020 1271.959473,269.720428
	C1272.012573,200.273911 1271.987793,130.827316 1272.039673,61.380795
	C1272.041992,58.248775 1272.623657,55.117188 1272.967529,51.575989
	C1275.947266,53.554707 1278.894897,55.942833 1281.978149,58.643623
	C1281.087646,59.998497 1279.714355,60.881004 1279.139038,62.130810
	C1278.630737,63.235054 1279.001465,64.748688 1279.001465,66.081566
	C1278.999878,131.732910 1279.000000,197.384247 1279.000000,263.035583
	C1279.000000,265.000885 1279.000000,266.966156 1279.000000,269.565948
	C1281.588989,268.549408 1283.482788,267.805878 1285.745483,267.052551
	C1281.343628,271.032654 1276.572876,275.022583 1271.421997,279.063538
z"/>
<path fill="#13CDE7" opacity="1.000000" stroke="none"
	d="
M1142.598145,33.937317
	C1143.636597,36.221695 1144.910767,38.554203 1144.913574,40.888271
	C1145.015503,124.118454 1145.005615,207.348770 1144.949463,290.579041
	C1144.948242,292.315491 1144.220581,294.051453 1143.477783,296.085876
	C1141.498901,295.829926 1139.873901,295.275726 1138.104126,294.418701
	C1138.306152,291.838501 1138.954834,289.561340 1138.956299,287.283783
	C1139.008423,205.712708 1139.005005,124.141609 1138.969971,42.570515
	C1138.969116,40.604504 1138.522583,38.638683 1138.118530,36.281738
	C1139.382446,35.255859 1140.811768,34.621017 1142.598145,33.937317
z"/>
<path fill="#2CB3EC" opacity="1.000000" stroke="none"
	d="
M910.000000,298.832977
	C906.304077,298.880829 902.608093,298.928711 898.354492,298.555908
	C897.248291,297.549774 896.701294,296.458893 896.151001,296.457214
	C890.747620,296.441101 890.924316,292.882721 890.956116,288.998993
	C891.068787,275.231171 891.046936,261.461578 890.953064,247.693497
	C890.937561,245.422363 890.304443,243.155441 889.984619,240.515472
	C891.684387,236.147217 893.295105,232.123108 895.040100,228.158096
	C899.622864,217.745117 904.264099,207.357895 909.131958,197.296173
	C909.587952,199.760941 909.970886,201.889725 909.973450,204.018967
	C910.011902,235.623596 910.000000,267.228302 910.000000,298.832977
z"/>
<path fill="#2BB4EC" opacity="1.000000" stroke="none"
	d="
M910.833801,134.999084
	C906.607178,134.367218 906.991638,131.180893 906.992737,128.151138
	C907.004639,96.128441 907.000000,64.105743 907.000122,31.625029
	C912.358337,31.118748 917.716370,31.070478 923.537231,31.552547
	C924.000061,52.487682 923.951660,72.892784 924.079895,93.296783
	C924.091858,95.200935 925.222168,97.098053 925.789795,99.362793
	C924.999390,101.480080 924.247742,103.231003 923.506287,104.986244
	C919.280701,114.989952 915.057678,124.994698 910.833801,134.999084
z"/>
<path fill="#4796F2" opacity="1.000000" stroke="none"
	d="
M648.882690,193.960663
	C649.255127,196.199234 649.947083,198.437088 649.951904,200.676437
	C650.022034,233.089798 650.000000,265.503357 650.000244,298.374878
	C644.975220,298.880768 639.949829,298.928711 634.462280,298.446960
	C633.999756,278.441833 634.056458,258.965942 633.906982,239.491623
	C633.892822,237.642746 632.587402,235.803757 631.940063,233.583664
	C633.334412,229.944534 634.614014,226.657623 636.016235,223.423828
	C640.279602,213.591766 644.590332,203.780197 648.882690,193.960663
z"/>
<path fill="#4A94F2" opacity="1.000000" stroke="none"
	d="
M631.881470,233.960175
	C632.587402,235.803757 633.892822,237.642746 633.906982,239.491623
	C634.056458,258.965942 633.999756,278.441833 634.000244,298.375305
	C624.976074,298.880890 615.951660,298.928467 606.463318,298.904266
	C605.666321,292.930237 605.060791,287.027679 605.066406,281.125732
	C605.074158,273.071259 605.547485,265.017242 606.372681,256.493530
	C610.730286,256.016235 614.562622,255.728943 618.334717,256.083466
	C621.730591,256.402618 622.896484,254.592743 623.995605,251.966339
	C626.524719,245.922653 629.241089,239.957306 631.881470,233.960175
z"/>
<path fill="#16C9E8" opacity="1.000000" stroke="none"
	d="
M1114.607666,47.940521
	C1114.971924,123.211777 1114.998901,198.537125 1114.934082,273.862396
	C1114.932129,276.076263 1113.963501,278.289246 1113.166138,280.776367
	C1111.309448,279.920380 1109.732300,278.790649 1108.022705,277.353943
	C1108.260254,275.136597 1108.951904,273.226379 1108.953369,271.315674
	C1109.008545,200.733627 1109.005737,130.151550 1108.969971,59.569489
	C1108.968994,57.603546 1108.522095,55.637829 1108.117920,53.280983
	C1110.054077,51.258175 1112.155762,49.626389 1114.607666,47.940521
z"/>
<path fill="#617CF7" opacity="1.000000" stroke="none"
	d="
M404.537018,31.094809
	C405.333740,40.278168 405.830322,49.387421 405.959259,58.501873
	C406.126221,70.304680 406.000000,82.111626 405.536377,94.446808
	C398.381836,94.929016 391.690918,94.881203 385.000000,94.833382
	C385.000000,73.916481 385.000000,52.999577 384.999817,31.624645
	C391.357544,31.118748 397.715485,31.070879 404.537018,31.094809
z"/>
<path fill="#01DFE3" opacity="1.000000" stroke="none"
	d="
M1308.995361,230.661697
	C1308.222046,229.258621 1307.082397,227.519897 1307.078003,225.778336
	C1306.977783,185.181870 1306.987915,144.585022 1307.049194,103.988358
	C1307.051514,102.442581 1307.768433,100.897888 1308.492554,99.176971
	C1311.545898,107.436783 1315.390503,115.698441 1316.719360,124.346664
	C1318.980103,139.060806 1320.753418,154.019791 1320.731689,168.872986
	C1320.702515,188.770599 1317.538208,208.453720 1310.829346,227.373596
	C1310.457153,228.422913 1309.723267,229.343948 1308.995361,230.661697
z"/>
<path fill="#21BEEA" opacity="1.000000" stroke="none"
	d="
M1003.418518,277.915649
	C1002.741699,276.132538 1002.050110,274.221191 1002.047302,272.308868
	C1001.991943,233.818192 1002.015747,195.327393 1002.033081,156.360703
	C1005.957764,159.681671 1009.873047,163.478561 1013.753113,167.974487
	C1013.478821,170.469238 1013.034119,172.264648 1013.031372,174.060745
	C1012.987671,202.638443 1012.978699,231.216263 1013.045715,259.793884
	C1013.050659,261.900665 1013.697754,264.005951 1014.046326,266.111938
	C1010.605713,270.003632 1007.165100,273.895325 1003.418518,277.915649
z"/>
<path fill="#20BFE9" opacity="1.000000" stroke="none"
	d="
M1014.366089,265.967407
	C1013.697754,264.005951 1013.050659,261.900665 1013.045715,259.793884
	C1012.978699,231.216263 1012.987671,202.638443 1013.031372,174.060745
	C1013.034119,172.264648 1013.478821,170.469238 1013.883850,168.282837
	C1035.614990,196.214722 1036.214233,237.546295 1014.366089,265.967407
z"/>
<path fill="#3BA3EF" opacity="1.000000" stroke="none"
	d="
M754.039429,169.881989
	C761.325989,178.691574 765.800415,189.064011 767.724426,200.023758
	C770.313049,214.769806 770.506165,229.813354 764.927429,244.135132
	C762.423401,250.563263 758.836792,256.569672 755.101501,262.677368
	C753.974365,260.401855 753.071655,258.217987 753.063354,256.030731
	C752.964966,230.101776 752.968567,204.172226 753.045593,178.243118
	C753.053894,175.455109 753.692932,172.668976 754.039429,169.881989
z"/>
<path fill="#29B6EB" opacity="1.000000" stroke="none"
	d="
M925.833252,98.998428
	C925.222168,97.098053 924.091858,95.200935 924.079895,93.296783
	C923.951660,72.892784 924.000061,52.487682 923.999878,31.624859
	C931.024414,31.118465 938.049072,31.070101 945.537354,31.094215
	C945.667297,37.069141 945.060913,42.971848 945.066467,48.873970
	C945.074097,56.928783 945.547791,64.983147 945.461975,73.507782
	C942.283447,73.977859 939.464661,73.977859 936.705688,73.977859
	C933.020325,82.458870 929.426819,90.728645 925.833252,98.998428
z"/>
<path fill="#7F5DFD" opacity="1.000000" stroke="none"
	d="
M123.999344,256.165649
	C124.021019,270.115601 124.042686,284.065552 124.032066,298.424927
	C115.975945,298.881989 107.952103,298.929626 99.553299,298.507507
	C99.452187,295.738342 99.947495,293.440430 99.962776,291.139313
	C100.042389,279.148895 99.999886,267.157684 100.423119,255.108475
	C102.587814,255.366882 104.323059,255.911087 106.071869,255.958847
	C112.045128,256.121979 118.023140,256.110504 123.999344,256.165649
z"/>
<path fill="#0CD3E6" opacity="1.000000" stroke="none"
	d="
M1211.555542,27.094624
	C1211.667358,41.508694 1211.271240,55.848633 1211.051758,70.191277
	C1211.006836,73.126831 1211.624268,76.072510 1211.619873,79.394020
	C1205.158203,74.367142 1197.716919,73.608063 1190.000366,73.376419
	C1189.999878,61.450531 1189.913574,49.981945 1190.045898,38.515881
	C1190.093506,34.396523 1190.667358,30.283230 1191.001099,26.167171
	C1197.704102,26.451931 1204.407104,26.736691 1211.555542,27.094624
z"/>
<path fill="#805CFD" opacity="1.000000" stroke="none"
	d="
M88.113358,81.043762
	C87.742302,79.134842 87.066887,77.228584 87.050110,75.316559
	C86.949417,63.836220 87.062553,52.353985 86.957138,40.873730
	C86.929909,37.908516 86.375832,34.948139 86.031219,31.576187
	C93.023270,31.118866 100.047874,31.070902 107.625122,31.492622
	C108.451797,34.261547 108.946716,36.559250 108.962677,38.860279
	C109.043510,50.516972 108.999947,62.174526 108.562202,73.903748
	C103.626854,75.019722 99.050163,75.814659 94.663589,77.208069
	C92.311378,77.955261 90.286140,79.731750 88.113358,81.043762
z"/>
<path fill="#0FD1E6" opacity="1.000000" stroke="none"
	d="
M1190.543579,26.093994
	C1190.667358,30.283230 1190.093506,34.396523 1190.045898,38.515881
	C1189.913574,49.981945 1189.999878,61.450531 1189.536865,73.449478
	C1182.716187,73.931602 1176.358398,73.882355 1170.000610,73.833107
	C1169.659790,58.833797 1169.318970,43.834488 1168.969727,28.359123
	C1176.002808,27.262316 1183.044434,26.641565 1190.543579,26.093994
z"/>
<path fill="#617CF7" opacity="1.000000" stroke="none"
	d="
M406.000092,223.166809
	C406.000092,249.416931 406.000061,275.667053 406.000305,302.375214
	C402.298187,303.214355 398.595856,303.595459 394.446777,303.447021
	C394.000031,276.333893 394.000031,249.750290 394.455933,223.095062
	C398.607941,223.071243 402.304016,223.119034 406.000092,223.166809
z"/>
<path fill="#449AF1" opacity="1.000000" stroke="none"
	d="
M669.681152,87.685379
	C669.122559,85.127678 668.110413,82.575188 668.080933,80.011391
	C667.921082,66.121674 667.965027,52.228951 668.045227,38.337875
	C668.057434,36.218731 668.624878,34.102791 668.967773,31.576000
	C675.691040,31.118637 682.382080,31.070639 689.536743,31.094456
	C689.666992,37.065544 689.046631,42.965946 689.069946,48.863811
	C689.101746,56.914799 689.623718,64.963852 689.506287,73.495102
	C687.097778,73.984154 685.080688,74.243118 683.146545,73.951759
	C677.652893,73.124161 673.807739,74.346703 672.665100,80.585121
	C672.213379,83.051315 670.707214,85.324379 669.681152,87.685379
z"/>
<path fill="#0DD3E6" opacity="1.000000" stroke="none"
	d="
M1203.999756,302.833740
	C1198.308472,303.215118 1192.617310,303.596497 1186.431152,303.496094
	C1185.624146,291.653076 1185.192261,280.293213 1185.062012,268.929901
	C1185.013184,264.679779 1185.667114,260.421661 1186.460938,256.094757
	C1192.947998,255.403641 1198.974731,254.784958 1204.968994,254.575836
	C1204.624268,257.949493 1204.065308,260.911713 1204.042725,263.878052
	C1203.943726,276.862640 1203.999878,289.848389 1203.999756,302.833740
z"/>
<path fill="#0FD1E6" opacity="1.000000" stroke="none"
	d="
M1186.000610,256.167175
	C1185.667114,260.421661 1185.013184,264.679779 1185.062012,268.929901
	C1185.192261,280.293213 1185.624146,291.653076 1185.968628,303.423706
	C1179.619019,303.214478 1173.237061,302.595917 1166.427490,301.904724
	C1166.000122,286.916260 1166.000000,272.000397 1166.463623,256.553894
	C1173.285156,256.071228 1179.642822,256.119202 1186.000610,256.167175
z"/>
<path fill="#627BF7" opacity="1.000000" stroke="none"
	d="
M394.000031,223.166672
	C394.000031,249.750290 394.000031,276.333893 394.000275,303.375549
	C390.478485,303.832336 386.956512,303.831055 383.199036,303.475739
	C382.975708,276.775574 382.987885,250.429413 383.453400,223.553375
	C387.271179,223.071213 390.635590,223.118942 394.000031,223.166672
z"/>
<path fill="#21BEEA" opacity="1.000000" stroke="none"
	d="
M1002.358032,153.973938
	C1002.028992,123.100266 1002.009033,92.085846 1002.019653,61.071430
	C1002.020203,59.424160 1002.277954,57.776981 1002.601379,55.614590
	C1005.859863,59.451302 1008.932861,63.803188 1011.861694,68.914452
	C1011.479065,71.300461 1011.037048,72.926590 1011.033081,74.553802
	C1010.984924,94.124413 1010.967590,113.695312 1011.047363,133.265717
	C1011.056641,135.550095 1011.695740,137.831909 1012.042847,140.114929
	C1008.919739,144.687668 1005.796631,149.260437 1002.358032,153.973938
z"/>
<path fill="#3CA2EF" opacity="1.000000" stroke="none"
	d="
M749.007812,143.555023
	C748.213562,141.293976 747.099670,138.749252 747.082458,136.197159
	C746.940430,115.099403 746.987610,94.000259 747.020264,72.901611
	C747.023987,70.496338 746.453735,67.651276 750.449341,67.034134
	C758.543945,80.021286 762.017151,94.183334 760.880432,109.178413
	C759.952209,121.421860 756.474487,133.065781 749.007812,143.555023
z"/>
<path fill="#2DB2EC" opacity="1.000000" stroke="none"
	d="
M889.956787,240.886566
	C890.304443,243.155441 890.937561,245.422363 890.953064,247.693497
	C891.046936,261.461578 891.068787,275.231171 890.956116,288.998993
	C890.924316,292.882721 890.747620,296.441101 896.151001,296.457214
	C896.701294,296.458893 897.248291,297.549774 897.898621,298.483887
	C891.642639,298.880432 885.284790,298.928345 878.463440,298.904633
	C877.333252,295.490906 876.207947,292.164734 876.091309,288.803558
	C875.809937,280.698090 875.859558,272.572418 876.083435,264.463348
	C876.153442,261.926392 877.206055,259.416595 878.309326,256.459106
	C882.103943,256.654419 883.864258,255.072418 885.024048,252.108109
	C886.511475,248.306244 888.298767,244.621689 889.956787,240.886566
z"/>
<path fill="#3CA2EF" opacity="1.000000" stroke="none"
	d="
M753.893555,169.581970
	C753.692932,172.668976 753.053894,175.455109 753.045593,178.243118
	C752.968567,204.172226 752.964966,230.101776 753.063354,256.030731
	C753.071655,258.217987 753.974365,260.401855 754.784546,262.818085
	C753.317627,265.273071 751.527710,267.497253 749.428772,269.879150
	C748.414551,268.531830 747.099304,267.029053 747.093689,265.521423
	C746.975098,233.651581 746.987427,201.781143 747.053406,169.910995
	C747.056702,168.345688 747.780884,166.781891 748.524780,164.920929
	C750.502808,166.176956 752.125305,167.729446 753.893555,169.581970
z"/>
<path fill="#0CD3E6" opacity="1.000000" stroke="none"
	d="
M1204.443604,302.906250
	C1203.999878,289.848389 1203.943726,276.862640 1204.042725,263.878052
	C1204.065308,260.911713 1204.624268,257.949493 1205.293213,254.422760
	C1209.086792,251.202103 1212.523438,248.544083 1215.960205,245.886078
	C1215.973389,264.229736 1215.986694,282.573425 1216.000488,301.375122
	C1212.296387,302.215057 1208.592041,302.596924 1204.443604,302.906250
z"/>
<path fill="#20BFEA" opacity="1.000000" stroke="none"
	d="
M1012.371704,139.962082
	C1011.695740,137.831909 1011.056641,135.550095 1011.047363,133.265717
	C1010.967590,113.695312 1010.984924,94.124413 1011.033081,74.553802
	C1011.037048,72.926590 1011.479065,71.300461 1011.883667,69.283188
	C1014.578918,74.335953 1017.934692,79.554718 1019.486450,85.263832
	C1024.646606,104.249527 1022.268311,122.535767 1012.371704,139.962082
z"/>
<path fill="#805CFD" opacity="1.000000" stroke="none"
	d="
M99.999893,255.166748
	C99.999886,267.157684 100.042389,279.148895 99.962776,291.139313
	C99.947495,293.440430 99.452187,295.738342 99.089615,298.435486
	C95.304100,298.881348 91.607285,298.929504 87.454529,298.905334
	C87.332291,295.233704 87.918808,291.636932 87.954086,288.034729
	C88.078773,275.302460 88.014816,262.568359 88.354919,249.504654
	C92.458267,251.171829 96.229080,253.169281 99.999893,255.166748
z"/>
<path fill="#7F5EFD" opacity="1.000000" stroke="none"
	d="
M108.999985,73.831779
	C108.999947,62.174526 109.043510,50.516972 108.962677,38.860279
	C108.946716,36.559250 108.451797,34.261547 108.088783,31.564619
	C112.359848,31.118931 116.719902,31.070934 121.539841,31.552919
	C121.999825,42.331017 122.160873,52.583099 121.908134,62.824978
	C121.825470,66.174652 120.666634,69.497772 119.579239,72.905182
	C115.772346,73.262138 112.386162,73.546959 108.999985,73.831779
z"/>
<path fill="#7E5EFD" opacity="1.000000" stroke="none"
	d="
M119.999962,72.833038
	C120.666634,69.497772 121.825470,66.174652 121.908134,62.824978
	C122.160873,52.583099 121.999825,42.331017 121.999634,31.624880
	C124.373177,31.118738 126.746826,31.070620 129.560211,31.094030
	C129.999954,41.587238 130.072342,52.009716 129.957504,62.430126
	C129.921356,65.711319 129.383072,68.986977 128.856918,73.027435
	C125.759476,73.470810 122.879723,73.151924 119.999962,72.833038
z"/>
<path fill="#2BB4EC" opacity="1.000000" stroke="none"
	d="
M910.412598,298.904877
	C910.000000,267.228302 910.011902,235.623596 909.973450,204.018967
	C909.970886,201.889725 909.587952,199.760941 909.183594,196.919312
	C909.950806,193.791199 910.916321,191.375748 911.881897,188.960281
	C912.254578,191.031494 912.947205,193.101959 912.951965,195.174011
	C913.021790,225.578064 912.934204,255.982620 913.081299,286.386108
	C913.100159,290.290070 914.224976,294.188690 914.918884,298.461060
	C913.608582,298.880463 912.216919,298.928619 910.412598,298.904877
z"/>
<path fill="#02DEE3" opacity="1.000000" stroke="none"
	d="
M1293.397095,258.925262
	C1293.273071,258.410187 1293.432495,257.776611 1293.853760,257.092590
	C1293.970581,257.630341 1293.825562,258.218567 1293.397095,258.925262
z"/>
<path fill="#fff" opacity="1.000000" stroke="none"
	d="
M911.939697,188.587036
	C910.916321,191.375748 909.950806,193.791199 908.933594,196.583527
	C904.264099,207.357895 899.622864,217.745117 895.040100,228.158096
	C893.295105,232.123108 891.684387,236.147217 889.984619,240.515472
	C888.298767,244.621689 886.511475,248.306244 885.024048,252.108109
	C883.864258,255.072418 882.103943,256.654419 878.405090,256.095428
	C872.077576,256.166992 866.154785,256.166992 859.234985,256.166992
	C867.995605,235.756714 876.373474,216.238129 884.791870,196.359436
	C893.474609,175.904205 902.116821,155.809067 910.796387,135.356506
	C915.057678,124.994698 919.280701,114.989952 923.506287,104.986244
	C924.247742,103.231003 924.999390,101.480080 925.789795,99.362785
	C929.426819,90.728645 933.020325,82.458870 936.705688,73.977859
	C939.464661,73.977859 942.283447,73.977859 945.551453,73.905579
	C950.580017,73.833305 955.159363,73.833305 960.359802,73.833305
	C955.025879,86.780182 950.010986,98.952744 944.976257,111.506012
	C941.738708,119.021011 938.421997,126.112740 935.329346,133.300873
	C931.778137,141.554688 928.425476,149.893936 924.935242,158.578522
	C921.259033,167.096130 917.627747,175.228409 914.015015,183.368958
	C913.305603,184.967499 912.668091,186.598007 911.939697,188.587036
z"/>
<path fill="#fff" opacity="1.000000" stroke="none"
	d="
M669.487854,87.925720
	C670.707214,85.324379 672.213379,83.051315 672.665100,80.585121
	C673.807739,74.346703 677.652893,73.124161 683.146545,73.951759
	C685.080688,74.243118 687.097778,73.984154 689.538574,73.904602
	C692.919678,73.832748 695.839172,73.832748 699.198425,73.832748
	C695.593445,82.784676 692.289062,90.990189 688.933228,99.578026
	C684.257874,110.434006 679.589783,120.888474 675.029663,131.389832
	C672.906860,136.278397 670.993652,141.257965 668.934021,146.578552
	C664.258423,157.434158 659.588440,167.887619 655.030396,178.389618
	C652.908264,183.279282 651.003235,188.263138 648.941223,193.582474
	C644.590332,203.780197 640.279602,213.591766 636.016235,223.423828
	C634.614014,226.657623 633.334412,229.944534 631.940063,233.583664
	C629.241089,239.957306 626.524719,245.922653 623.995605,251.966339
	C622.896484,254.592743 621.730591,256.402618 618.334717,256.083466
	C614.562622,255.728943 610.730286,256.016235 606.462097,256.095764
	C603.521179,256.167480 601.042297,256.167480 598.297485,256.167480
	C601.305420,248.795822 604.160095,241.799805 607.065918,234.421539
	C611.657043,223.900009 616.315002,213.811493 620.707458,203.608673
	C626.266357,190.696442 631.612671,177.692673 637.041260,164.724411
	C637.724243,163.092896 638.349609,161.437241 639.060059,159.416229
	C649.177124,135.415131 659.235840,111.790596 669.487854,87.925720
z"/>
<path fill="#fff" opacity="1.000000" stroke="none"
	d="
M119.579239,72.905182
	C122.879723,73.151924 125.759476,73.470810 128.838318,73.455330
	C133.196365,73.544128 137.355347,73.967293 141.756958,74.415146
	C141.756958,80.084633 141.756958,85.774872 141.756958,92.022125
	C138.406860,92.022125 135.160751,92.022125 131.027679,92.022736
	C118.664848,91.222694 113.097343,98.477707 113.055931,109.155464
	C112.912613,146.118332 112.933762,183.082397 113.106224,220.045013
	C113.123138,223.670151 113.785736,227.781494 115.591629,230.805359
	C119.149612,236.763016 125.039314,238.957550 131.999878,237.834061
	C135.131454,237.834061 138.263031,237.834061 141.696106,237.834061
	C141.696106,243.974274 141.696106,249.695267 141.696106,256.021088
	C136.100861,256.021088 130.513428,256.021088 124.462677,256.093384
	C118.023140,256.110504 112.045128,256.121979 106.071869,255.958847
	C104.323059,255.911087 102.587814,255.366882 100.423126,255.108459
	C96.229080,253.169281 92.458267,251.171829 88.364235,249.028748
	C79.659920,238.916275 78.808868,227.087982 78.907272,214.720306
	C79.176270,180.913147 79.101677,147.101990 78.943390,113.293434
	C78.889671,101.819458 79.628136,90.753044 87.969788,81.364113
	C90.286140,79.731750 92.311378,77.955261 94.663589,77.208069
	C99.050163,75.814659 103.626854,75.019722 108.562202,73.903748
	C112.386162,73.546959 115.772346,73.262138 119.579239,72.905182
z"/>
<path fill="#7E5EFD" opacity="1.000000" stroke="none"
	d="
M131.999939,237.375885
	C125.039314,238.957550 119.149612,236.763016 115.591629,230.805359
	C113.785736,227.781494 113.123138,223.670151 113.106224,220.045013
	C112.933762,183.082397 112.912613,146.118332 113.055931,109.155464
	C113.097343,98.477707 118.664848,91.222694 130.570343,92.094910
	C131.333282,96.295555 131.949890,100.424179 131.956436,104.553772
	C132.026505,148.674988 132.000000,192.796371 131.999939,237.375885
z"/>
<path fill="#fff" opacity="1.000000" stroke="none"
	d="
M394.455933,223.095062
	C390.635590,223.118942 387.271179,223.071213 383.453308,223.095184
	C380.856903,223.064392 378.713898,222.961914 376.287842,222.845901
	C376.287842,211.372162 376.287842,199.973663 376.287842,187.976501
	C378.580048,187.976501 380.841858,187.976501 384.005005,187.976624
	C388.270782,187.929047 391.635193,187.881317 395.453064,187.905197
	C399.271210,187.929016 402.635895,187.881241 406.000580,187.833466
	C407.476959,187.934357 408.953308,188.035263 410.713989,188.155594
	C410.713989,199.611481 410.713989,211.070755 410.713989,223.023163
	C409.396545,223.023163 408.138397,223.023163 406.440186,223.094986
	C402.304016,223.119034 398.607941,223.071243 394.455933,223.095062
z"/>
<path fill="#fff" opacity="1.000000" stroke="none"
	d="
M384.547485,94.905083
	C391.690918,94.881203 398.381836,94.929016 405.536469,94.905014
	C407.476562,94.934128 408.952942,95.035065 410.713806,95.155449
	C410.713806,106.611191 410.713806,118.070404 410.713806,130.023163
	C409.396851,130.023163 408.138794,130.023163 405.987244,130.023254
	C401.729065,130.071091 398.364349,130.118820 394.546265,130.094879
	C390.728455,130.070999 387.364014,130.118774 383.999542,130.166565
	C381.528351,130.166565 379.057190,130.166565 376.294067,130.166565
	C376.294067,118.363647 376.294067,106.974586 376.294067,94.976784
	C378.894592,94.976784 381.494812,94.976784 384.547485,94.905083
z"/>
<path fill="#627BF7" opacity="1.000000" stroke="none"
	d="
M383.999725,130.624695
	C387.364014,130.118774 390.728455,130.070999 394.546448,130.552917
	C394.999847,149.999619 394.999725,168.916611 394.999634,187.833618
	C391.635193,187.881317 388.270782,187.929047 384.452881,187.905090
	C383.999603,168.916565 383.999756,149.999695 383.999725,130.624695
z"/>
<path fill="#fff" opacity="1.000000" stroke="none"
	d="
M1216.098022,245.567520
	C1212.523438,248.544083 1209.086792,251.202103 1205.325806,254.013184
	C1198.974731,254.784958 1192.947998,255.403641 1186.460938,256.094757
	C1179.642822,256.119202 1173.285156,256.071228 1166.463867,256.095764
	C1164.182739,256.066162 1162.364990,255.963989 1160.275024,255.846527
	C1160.275024,250.067825 1160.275024,244.314651 1160.275024,237.977814
	C1162.575562,237.977814 1164.839722,237.977814 1168.000732,237.977203
	C1184.438477,239.490143 1188.786743,230.792404 1188.864258,221.786713
	C1189.189697,183.956436 1189.078613,146.121460 1188.925293,108.289009
	C1188.900024,102.055992 1186.888550,95.936493 1180.598022,93.467194
	C1176.812134,91.981071 1172.226440,92.532082 1168.000244,92.167648
	C1165.526855,92.167648 1163.053589,92.167648 1160.292603,92.167648
	C1160.292603,86.042206 1160.292603,80.307884 1160.292603,73.978806
	C1163.227295,73.978806 1166.159912,73.978806 1169.546631,73.905960
	C1176.358398,73.882355 1182.716187,73.931602 1189.537354,73.907776
	C1197.716919,73.608063 1205.158203,74.367142 1211.652588,79.803497
	C1219.338501,86.146835 1222.885254,94.394020 1222.925537,103.824127
	C1223.099609,144.540817 1223.113037,185.259308 1222.890869,225.975540
	C1222.853149,232.911102 1221.234863,239.787842 1216.098022,245.567520
z"/>
<path fill="#0FD1E6" opacity="1.000000" stroke="none"
	d="
M1168.000122,92.625732
	C1172.226440,92.532082 1176.812134,91.981071 1180.598022,93.467194
	C1186.888550,95.936493 1188.900024,102.055992 1188.925293,108.289009
	C1189.078613,146.121460 1189.189697,183.956436 1188.864258,221.786713
	C1188.786743,230.792404 1184.438477,239.490143 1168.448730,237.904175
	C1168.000000,189.582443 1168.000000,141.333130 1168.000122,92.625732
z"/>
<path fill="#617CF7" opacity="1.000000" stroke="none"
	d="
M395.453064,187.905212
	C394.999725,168.916611 394.999847,149.999619 394.999817,130.624588
	C398.364349,130.118820 401.729065,130.071091 405.547241,130.095093
	C406.000488,149.083679 406.000305,168.000534 406.000366,187.375427
	C402.635895,187.881241 399.271210,187.929016 395.453064,187.905212
z"/>
</g>
</svg>