<?xml version="1.0" encoding="utf-8"?>
<svg version="1.1" xmlns:xlink="http://www.w3.org/1999/xlink" width="12px" height="12px" xmlns="http://www.w3.org/2000/svg">
  <g transform="matrix(1 0 0 1 -1095 -140 )">
    <path d="M 11.0792410714286 11.0792410714286  C 11.1216517857143 11.0368303571429  11.1428571428571 10.9866071428571  11.1428571428571 10.9285714285714  L 11.1428571428571 3.64285714285714  C 11.1428571428571 3.58482142857143  11.1216517857143 3.53459821428571  11.0792410714286 3.4921875  C 11.0368303571429 3.44977678571428  10.9866071428571 3.42857142857143  10.9285714285714 3.42857142857143  L 3.64285714285714 3.42857142857143  C 3.58482142857143 3.42857142857143  3.53459821428571 3.44977678571428  3.4921875 3.4921875  C 3.44977678571429 3.53459821428571  3.42857142857143 3.58482142857143  3.42857142857143 3.64285714285714  L 3.42857142857143 10.9285714285714  C 3.42857142857143 10.9866071428571  3.44977678571429 11.0368303571429  3.4921875 11.0792410714286  C 3.53459821428571 11.1216517857143  3.58482142857143 11.1428571428571  3.64285714285714 11.1428571428571  L 10.9285714285714 11.1428571428571  C 10.9866071428571 11.1428571428571  11.0368303571429 11.1216517857143  11.0792410714286 11.0792410714286  Z M 11.6852678571429 2.88616071428571  C 11.8950892857143 3.09598214285714  12 3.34821428571429  12 3.64285714285714  L 12 10.9285714285714  C 12 11.2232142857143  11.8950892857143 11.4754464285714  11.6852678571429 11.6852678571429  C 11.4754464285714 11.8950892857143  11.2232142857143 12  10.9285714285714 12  L 3.64285714285714 12  C 3.34821428571429 12  3.09598214285714 11.8950892857143  2.88616071428571 11.6852678571429  C 2.67633928571429 11.4754464285714  2.57142857142857 11.2232142857143  2.57142857142857 10.9285714285714  L 2.57142857142857 3.64285714285714  C 2.57142857142857 3.34821428571429  2.67633928571429 3.09598214285714  2.88616071428571 2.88616071428571  C 3.09598214285714 2.67633928571428  3.34821428571429 2.57142857142857  3.64285714285714 2.57142857142857  L 10.9285714285714 2.57142857142857  C 11.2232142857143 2.57142857142857  11.4754464285714 2.67633928571428  11.6852678571429 2.88616071428571  Z M 9.11383928571428 0.314732142857143  C 9.32366071428572 0.524553571428571  9.42857142857143 0.776785714285715  9.42857142857143 1.07142857142857  L 9.42857142857143 2.14285714285714  L 8.57142857142857 2.14285714285714  L 8.57142857142857 1.07142857142857  C 8.57142857142857 1.01339285714286  8.55022321428572 0.963169642857142  8.5078125 0.920758928571428  C 8.46540178571429 0.878348214285713  8.41517857142857 0.857142857142857  8.35714285714286 0.857142857142857  L 1.07142857142857 0.857142857142857  C 1.01339285714286 0.857142857142857  0.963169642857143 0.878348214285713  0.920758928571429 0.920758928571428  C 0.878348214285714 0.963169642857142  0.857142857142857 1.01339285714286  0.857142857142857 1.07142857142857  L 0.857142857142857 8.35714285714286  C 0.857142857142857 8.41517857142857  0.878348214285714 8.46540178571428  0.920758928571429 8.5078125  C 0.963169642857143 8.55022321428571  1.01339285714286 8.57142857142857  1.07142857142857 8.57142857142857  L 2.14285714285714 8.57142857142857  L 2.14285714285714 9.42857142857143  L 1.07142857142857 9.42857142857143  C 0.776785714285714 9.42857142857143  0.524553571428572 9.32366071428571  0.314732142857143 9.11383928571429  C 0.104910714285714 8.90401785714286  0 8.65178571428571  0 8.35714285714286  L 0 1.07142857142857  C 0 0.776785714285715  0.104910714285714 0.524553571428571  0.314732142857143 0.314732142857143  C 0.524553571428572 0.104910714285714  0.776785714285714 0  1.07142857142857 0  L 8.35714285714286 0  C 8.65178571428572 0  8.90401785714286 0.104910714285714  9.11383928571428 0.314732142857143  Z " fill-rule="nonzero" fill="#7f7f7f" stroke="none" transform="matrix(1 0 0 1 1095 140 )" />
  </g>
</svg>