<?xml version="1.0" encoding="utf-8"?>
<svg version="1.1" xmlns:xlink="http://www.w3.org/1999/xlink" width="50px" height="50px" xmlns="http://www.w3.org/2000/svg">
  <g transform="matrix(1 0 0 1 -755 -438 )">
    <path d="M 7.26450884955752 32.0342876106195  C 4.64846946902655 25.4437256637168  5.93580353982301 18.1816902654867  10.2138721238938 12.9540840707965  L 10.1724938230088 15.8758469026549  L 16.0551544424779 15.999984159292  L 16.278141300885 3.03719212389381  L 3.31770324778761 2.81650628318584  L 3.19586700884956 8.69916690265487  L 6.05789753982301 8.73824712831859  C 0.134101079646016 15.6165834115044  -1.70965555752212 25.375017039823  1.79359975221239 34.2065701371681  C 5.62800152212389 43.8755524380531  14.8852723185841 49.9582427035398  24.9355997522124 49.9582427035398  C 26.6321147964602 49.9582427035398  28.3516400176991 49.7835301371681  30.071165238938 49.4272196061947  L 28.8688687787611 43.6663775707965  C 19.7772006371681 45.5606271283186  10.6896519646018 40.6710527920354  7.26460771681416 32.0341740309735  Z M 48.2037920353982 15.7906327433628  C 43.721103539823 4.49446017699115  31.8294911504425 -1.90542920353982  19.9306991150443 0.572725663716813  L 21.1307004424779 6.33356769911504  C 30.2223685840708 4.43931814159292  39.3099172566372 9.3288924778761  42.7349615044248 17.9610632743363  C 45.3532960176991 24.5563331858407  44.0636668141593 31.8254305309734  39.7810079646018 37.0524482300885  L 39.8177889380531 34.1053800884956  L 33.9328331858407 33.9950371681416  L 33.7328388495575 46.9554752212389  L 46.6932769026549 47.1554695575221  L 46.8036198230089 41.2728089380531  L 43.9623043362832 41.2360279646018  C 49.8702114159292 34.3623996460177  51.7069061061947 24.6157359292035  48.2035919469027 15.7906562831858  Z " fill-rule="nonzero" fill="#459abf" stroke="none" fill-opacity="0.250980392156863" transform="matrix(1 0 0 1 755 438 )" />
  </g>
</svg>