<?xml version="1.0" encoding="utf-8"?>
<svg version="1.1" xmlns:xlink="http://www.w3.org/1999/xlink" width="100px" height="36px" xmlns="http://www.w3.org/2000/svg">
  <g transform="matrix(1 0 0 1 -194 -3 )">
    <path d="M 194.5 22.9596273291925  C 194.5 22.9596273291925  194.5 8  194.5 8  C 194.5 5.51471862576143  196.514718625761 3.5  199 3.5  C 199 3.5  289 3.5  289 3.5  C 291.485281374239 3.5  293.5 5.51471862576143  293.5 8  C 293.5 8  293.5 22.9596273291925  293.5 22.9596273291925  C 293.5 25.4449087034311  291.485281374239 27.4596273291925  289 27.4596273291925  C 289 27.4596273291925  253.545389083361 27.4596273291925  253.545389083361 27.4596273291925  C 253.545389083361 27.4596273291925  244.256387495569 37.3611878201464  244.256387495569 37.3611878201464  C 244.256387495569 37.3611878201464  235.995925875975 27.4596273291925  235.995925875975 27.4596273291925  C 235.995925875975 27.4596273291925  199 27.4596273291925  199 27.4596273291925  C 196.514718625761 27.4596273291925  194.5 25.4449087034311  194.5 22.9596273291925  Z " fill-rule="nonzero" fill="#ffffff" stroke="none" />
    <path d="M 194 22.9596273291925  C 194 22.9596273291925  194 8  194 8  C 194 5.23857625084603  196.238576250846 3  199 3  C 199 3  289 3  289 3  C 291.761423749154 3  294 5.23857625084603  294 8  C 294 8  294 22.9596273291925  294 22.9596273291925  C 294 25.7210510783465  291.761423749154 27.9596273291925  289 27.9596273291925  C 289 27.9596273291925  253.761904761905 27.9596273291925  253.761904761905 27.9596273291925  C 253.761904761905 27.9596273291925  244.234432234432 38.1153846153845  244.234432234432 38.1153846153845  C 244.234432234432 38.1153846153845  235.761904761905 27.9596273291925  235.761904761905 27.9596273291925  C 235.761904761905 27.9596273291925  199 27.9596273291925  199 27.9596273291925  C 196.238576250846 27.9596273291925  194 25.7210510783465  194 22.9596273291925  Z M 195 22.9596273291925  C 195 25.1687663285157  196.790861000677 26.9596273291925  199 26.9596273291925  C 199 26.9596273291925  236.229946990045 26.9596273291925  236.229946990045 26.9596273291925  C 236.229946990045 26.9596273291925  244.278342756705 36.6069910249082  244.278342756705 36.6069910249082  C 244.278342756705 36.6069910249082  253.328873404817 26.9596273291925  253.328873404817 26.9596273291925  C 253.328873404817 26.9596273291925  289 26.9596273291925  289 26.9596273291925  C 291.209138999323 26.9596273291925  293 25.1687663285157  293 22.9596273291925  C 293 22.9596273291925  293 8  293 8  C 293 5.79086100067683  291.209138999323 4  289 4  C 289 4  199 4  199 4  C 196.790861000677 4  195 5.79086100067683  195 8  C 195 8  195 22.9596273291925  195 22.9596273291925  Z " fill-rule="nonzero" fill="#d7d7d7" stroke="none" />
  </g>
</svg>