<?xml version="1.0" standalone="no"?><!DOCTYPE svg PUBLIC "-//W3C//DTD SVG 1.1//EN" "http://www.w3.org/Graphics/SVG/1.1/DTD/svg11.dtd"><svg t="1703327607734" class="icon" viewBox="0 0 1024 1024" version="1.1" xmlns="http://www.w3.org/2000/svg" p-id="4704" xmlns:xlink="http://www.w3.org/1999/xlink" width="200" height="200"><path d="M512 0a512 512 0 0 0-512 512 512 512 0 0 0 512 512 512 512 0 0 0 512-512 512 512 0 0 0-512-512z m0 910.222222A398.222222 398.222222 0 1 1 512 113.777778a398.222222 398.222222 0 0 1 0 796.444444z" fill="#555555" p-id="4705"></path><path d="M540.444444 455.111111h-56.888888a28.444444 28.444444 0 0 0-28.444445 28.444445v227.555555a28.444444 28.444444 0 0 0 28.444445 28.444445h56.888888a28.444444 28.444444 0 0 0 28.444445-28.444445v-227.555555a28.444444 28.444444 0 0 0-28.444445-28.444445zM540.444444 284.444444h-56.888888a28.444444 28.444444 0 0 0-28.444445 28.444445v56.888889a28.444444 28.444444 0 0 0 28.444445 28.444444h56.888888a28.444444 28.444444 0 0 0 28.444445-28.444444v-56.888889a28.444444 28.444444 0 0 0-28.444445-28.444445z" fill="#555555" p-id="4706"></path></svg>