<?xml version="1.0" encoding="utf-8"?>
<svg version="1.1" xmlns:xlink="http://www.w3.org/1999/xlink" width="20px" height="20px" xmlns="http://www.w3.org/2000/svg">
  <g transform="matrix(1 0 0 1 -19 -20 )">
    <path d="M 4.98046875 1.34114583333333  C 6.51258680555556 0.447048611111109  8.18576388888889 0  10 0  C 11.8142361111111 0  13.4874131944444 0.447048611111109  15.01953125 1.34114583333333  C 16.5516493055556 2.23524305555555  17.7647569444444 3.44835069444444  18.6588541666667 4.98046875  C 19.5529513888889 6.51258680555555  20 8.18576388888889  20 10  C 20 11.8142361111111  19.5529513888889 13.4874131944444  18.6588541666667 15.01953125  C 17.7647569444444 16.5516493055556  16.5516493055556 17.7647569444444  15.01953125 18.6588541666667  C 13.4874131944444 19.5529513888889  11.8142361111111 20  10 20  C 8.18576388888889 20  6.51258680555556 19.5529513888889  4.98046875 18.6588541666667  C 3.44835069444444 17.7647569444444  2.23524305555556 16.5516493055556  1.34114583333333 15.01953125  C 0.447048611111111 13.4874131944444  0 11.8142361111111  0 10  C 0 8.18576388888889  0.447048611111111 6.51258680555555  1.34114583333333 4.98046875  C 2.23524305555556 3.44835069444444  3.44835069444444 2.23524305555555  4.98046875 1.34114583333333  Z M 11.5494791666667 16.54296875  C 11.6276041666667 16.4605034722222  11.6666666666667 16.3585069444444  11.6666666666667 16.2369791666667  L 11.6666666666667 13.7630208333333  C 11.6666666666667 13.6414930555556  11.6276041666667 13.5394965277778  11.5494791666667 13.45703125  C 11.4713541666667 13.3745659722222  11.3758680555556 13.3333333333333  11.2630208333333 13.3333333333333  L 8.76302083333333 13.3333333333333  C 8.65017361111111 13.3333333333333  8.55034722222222 13.3767361111111  8.46354166666667 13.4635416666667  C 8.37673611111111 13.5503472222222  8.33333333333333 13.6501736111111  8.33333333333333 13.7630208333333  L 8.33333333333333 16.2369791666667  C 8.33333333333333 16.3498263888889  8.37673611111111 16.4496527777778  8.46354166666667 16.5364583333333  C 8.55034722222222 16.6232638888889  8.65017361111111 16.6666666666667  8.76302083333333 16.6666666666667  L 11.2630208333333 16.6666666666667  C 11.3758680555556 16.6666666666667  11.4713541666667 16.6254340277778  11.5494791666667 16.54296875  Z M 11.50390625 11.9856770833333  C 11.5863715277778 11.9205729166667  11.6319444444444 11.8446180555556  11.640625 11.7578125  L 11.875 3.671875  C 11.875 3.56770833333333  11.8315972222222 3.48958333333333  11.7447916666667 3.4375  C 11.6579861111111 3.36805555555555  11.5538194444444 3.33333333333333  11.4322916666667 3.33333333333333  L 8.56770833333333 3.33333333333333  C 8.44618055555556 3.33333333333333  8.34201388888889 3.36805555555555  8.25520833333333 3.4375  C 8.16840277777778 3.48958333333333  8.125 3.56770833333333  8.125 3.671875  L 8.34635416666667 11.7578125  C 8.34635416666667 11.8446180555556  8.38975694444444 11.9205729166667  8.4765625 11.9856770833333  C 8.56336805555556 12.05078125  8.66753472222222 12.0833333333333  8.7890625 12.0833333333333  L 11.1979166666667 12.0833333333333  C 11.3194444444444 12.0833333333333  11.4214409722222 12.05078125  11.50390625 11.9856770833333  Z " fill-rule="nonzero" fill="#d98200" stroke="none" transform="matrix(1 0 0 1 19 20 )" />
  </g>
</svg>