<?xml version="1.0" encoding="utf-8"?>
<svg version="1.1" xmlns:xlink="http://www.w3.org/1999/xlink" width="20px" height="19px" xmlns="http://www.w3.org/2000/svg">
  <g transform="matrix(1 0 0 1 -14 -20 )">
    <path d="M 11.3195991091314 15.9684495192308  C 11.3901262063846 15.8961338141026  11.4253897550111 15.8066907051282  11.4253897550111 15.7001201923077  L 11.4253897550111 13.5306490384615  C 11.4253897550111 13.424078525641  11.3901262063846 13.3346354166667  11.3195991091314 13.2623197115385  C 11.2490720118782 13.1900040064103  11.1655530809206 13.1538461538462  11.0690423162584 13.1538461538462  L 8.93095768374165 13.1538461538462  C 8.83444691907944 13.1538461538462  8.75092798812175 13.1900040064103  8.6804008908686 13.2623197115385  C 8.60987379361544 13.3346354166667  8.57461024498886 13.424078525641  8.57461024498886 13.5306490384615  L 8.57461024498886 15.7001201923077  C 8.57461024498886 15.8066907051282  8.60987379361544 15.8961338141026  8.6804008908686 15.9684495192308  C 8.75092798812175 16.040765224359  8.83444691907944 16.0769230769231  8.93095768374165 16.0769230769231  L 11.0690423162584 16.0769230769231  C 11.1655530809206 16.0769230769231  11.2490720118782 16.040765224359  11.3195991091314 15.9684495192308  Z M 11.2861915367483 11.6180889423077  C 11.3567186340015 11.568609775641  11.3956941351151 11.5058092948718  11.4031180400891 11.4296875  L 11.6035634743875 6.18870192307692  C 11.6035634743875 6.09735576923077  11.5664439495174 6.02504006410256  11.4922048997773 5.97175480769231  C 11.3956941351151 5.88802083333333  11.3066072754269 5.84615384615385  11.2249443207127 5.84615384615385  L 8.77505567928731 5.84615384615385  C 8.69339272457313 5.84615384615385  8.60430586488493 5.88802083333333  8.50779510022272 5.97175480769231  C 8.43355605048255 6.02504006410256  8.39643652561247 6.10496794871795  8.39643652561247 6.21153846153846  L 8.58574610244989 11.4296875  C 8.58574610244989 11.5058092948718  8.62286562731997 11.568609775641  8.69710467706013 11.6180889423077  C 8.7713437268003 11.6675681089744  8.86043058648849 11.6923076923077  8.96436525612472 11.6923076923077  L 11.0244988864143 11.6923076923077  C 11.1284335560505 11.6923076923077  11.2156644394952 11.6675681089744  11.2861915367483 11.6180889423077  Z M 10.7238307349666 0.205528846153846  C 10.9465478841871 0.342548076923077  11.1210096510765 0.529046474358973  11.2472160356347 0.765024038461539  L 19.7995545657016 16.8419471153846  C 20.0593912397921 17.3215144230769  20.0519673348181 17.8010817307692  19.7772828507795 18.2806490384615  C 19.6510764662212 18.5014022435897  19.4784706755754 18.6764823717949  19.2594654788419 18.8058894230769  C 19.0404602821084 18.935296474359  18.8047512991834 19  18.5523385300668 19  L 1.44766146993318 19  C 1.19524870081663 19  0.959539717891611 18.935296474359  0.740534521158129 18.8058894230769  C 0.521529324424647 18.6764823717949  0.348923533778768 18.5014022435897  0.22271714922049 18.2806490384615  C -0.0519673348181143 17.8010817307692  -0.0593912397921307 17.3215144230769  0.200445434298441 16.8419471153846  L 8.75278396436526 0.765024038461539  C 8.87899034892354 0.529046474358973  9.05345211581292 0.342548076923077  9.27616926503341 0.205528846153846  C 9.4988864142539 0.0685096153846162  9.74016332590943 0  10 0  C 10.2598366740906 0  10.5011135857461 0.0685096153846162  10.7238307349666 0.205528846153846  Z " fill-rule="nonzero" fill="#d9001b" stroke="none" transform="matrix(1 0 0 1 14 20 )" />
  </g>
</svg>