<?xml version="1.0" encoding="utf-8"?>
<svg version="1.1" xmlns:xlink="http://www.w3.org/1999/xlink" width="18px" height="12px" xmlns="http://www.w3.org/2000/svg">
  <g transform="matrix(1 0 0 1 -937 -281 )">
    <path d="M 17.666015625 9.72916666666667  C 17.888671875 9.99305555555555  18 10.3055555555556  18 10.6666666666667  C 18 11.0277777777778  17.888671875 11.3402777777778  17.666015625 11.6041666666667  C 17.443359375 11.8680555555556  17.1796875 12  16.875 12  L 1.125 12  C 0.8203125 12  0.556640625 11.8680555555556  0.333984375 11.6041666666667  C 0.111328125 11.3402777777778  0 11.0277777777778  0 10.6666666666667  C 0 10.3055555555556  0.111328125 9.99305555555555  0.333984375 9.72916666666667  L 8.208984375 0.395833333333334  C 8.431640625 0.131944444444443  8.6953125 0  9 0  C 9.3046875 0  9.568359375 0.131944444444443  9.791015625 0.395833333333334  L 17.666015625 9.72916666666667  Z " fill-rule="nonzero" fill="#02a7f0" stroke="none" transform="matrix(1 0 0 1 937 281 )" />
  </g>
</svg>