<?xml version="1.0" encoding="utf-8"?>
<svg version="1.1" xmlns:xlink="http://www.w3.org/1999/xlink" width="20px" height="12px" xmlns="http://www.w3.org/2000/svg">
  <g transform="matrix(1 0 0 1 -873 -211 )">
    <path d="M 19.62890625 9.72916666666667  C 19.8763020833333 9.99305555555555  20 10.3055555555556  20 10.6666666666667  C 20 11.0277777777778  19.8763020833333 11.3402777777778  19.62890625 11.6041666666667  C 19.3815104166667 11.8680555555556  19.0885416666667 12  18.75 12  L 1.25 12  C 0.911458333333333 12  0.618489583333333 11.8680555555556  0.37109375 11.6041666666667  C 0.123697916666667 11.3402777777778  0 11.0277777777778  0 10.6666666666667  C 0 10.3055555555556  0.123697916666667 9.99305555555555  0.37109375 9.72916666666667  L 9.12109375 0.395833333333334  C 9.36848958333334 0.131944444444443  9.66145833333334 0  10 0  C 10.3385416666667 0  10.6315104166667 0.131944444444443  10.87890625 0.395833333333334  L 19.62890625 9.72916666666667  Z " fill-rule="nonzero" fill="#555555" stroke="none" transform="matrix(1 0 0 1 873 211 )" />
  </g>
</svg>