<?xml version="1.0" encoding="utf-8"?>
<svg version="1.1" xmlns:xlink="http://www.w3.org/1999/xlink" width="17px" height="12px" xmlns="http://www.w3.org/2000/svg">
  <g transform="matrix(1 0 0 1 -434 -281 )">
    <path d="M 16.6845703125 9.72916666666667  C 16.8948567708333 9.99305555555555  17 10.3055555555556  17 10.6666666666667  C 17 11.0277777777778  16.8948567708333 11.3402777777778  16.6845703125 11.6041666666667  C 16.4742838541667 11.8680555555556  16.2252604166667 12  15.9375 12  L 1.0625 12  C 0.774739583333333 12  0.525716145833333 11.8680555555556  0.3154296875 11.6041666666667  C 0.105143229166667 11.3402777777778  0 11.0277777777778  0 10.6666666666667  C 0 10.3055555555556  0.105143229166667 9.99305555555555  0.3154296875 9.72916666666667  L 7.7529296875 0.395833333333334  C 7.96321614583333 0.131944444444443  8.21223958333333 0  8.5 0  C 8.78776041666667 0  9.03678385416667 0.131944444444443  9.2470703125 0.395833333333334  L 16.6845703125 9.72916666666667  Z " fill-rule="nonzero" fill="#02a7f0" stroke="none" transform="matrix(1 0 0 1 434 281 )" />
  </g>
</svg>