<?xml version="1.0" encoding="utf-8"?>
<svg version="1.1" xmlns:xlink="http://www.w3.org/1999/xlink" width="16px" height="12px" xmlns="http://www.w3.org/2000/svg">
  <g transform="matrix(1 0 0 1 -106 -281 )">
    <path d="M 15.703125 9.72916666666667  C 15.9010416666667 9.99305555555555  16 10.3055555555556  16 10.6666666666667  C 16 11.0277777777778  15.9010416666667 11.3402777777778  15.703125 11.6041666666667  C 15.5052083333333 11.8680555555556  15.2708333333333 12  15 12  L 1 12  C 0.729166666666667 12  0.494791666666667 11.8680555555556  0.296875 11.6041666666667  C 0.0989583333333333 11.3402777777778  0 11.0277777777778  0 10.6666666666667  C 0 10.3055555555556  0.0989583333333333 9.99305555555555  0.296875 9.72916666666667  L 7.296875 0.395833333333334  C 7.49479166666667 0.131944444444443  7.72916666666667 0  8 0  C 8.27083333333333 0  8.50520833333333 0.131944444444443  8.703125 0.395833333333334  L 15.703125 9.72916666666667  Z " fill-rule="nonzero" fill="#555555" stroke="none" transform="matrix(1 0 0 1 106 281 )" />
  </g>
</svg>