<?xml version="1.0" encoding="utf-8"?>
<svg version="1.1" xmlns:xlink="http://www.w3.org/1999/xlink" width="8px" height="15px" xmlns="http://www.w3.org/2000/svg">
  <g transform="matrix(1 0 0 1 -1126 -530 )">
    <path d="M 7.86254295532646 0.901803607214428  C 7.95418098510882 1.00200400801603  8 1.11723446893787  8 1.24749498997996  C 8 1.37775551102204  7.95418098510882 1.49298597194389  7.86254295532646 1.59318637274549  L 2.46048109965636 7.5  L 7.86254295532646 13.4068136272545  C 7.95418098510882 13.5070140280561  8 13.622244488978  8 13.75250501002  C 8 13.8827655310621  7.95418098510882 13.997995991984  7.86254295532646 14.0981963927856  L 7.17525773195876 14.8496993987976  C 7.0836197021764 14.9498997995992  6.97823596792669 15  6.85910652920962 15  C 6.73997709049256 15  6.63459335624284 14.9498997995992  6.54295532646048 14.8496993987976  L 0.13745704467354 7.84569138276553  C 0.0458190148911799 7.74549098196393  0 7.63026052104208  0 7.5  C 0 7.36973947895792  0.0458190148911799 7.25450901803607  0.13745704467354 7.15430861723447  L 6.54295532646048 0.150300601202405  C 6.63459335624284 0.0501002004008011  6.73997709049256 0  6.85910652920962 0  C 6.97823596792669 0  7.0836197021764 0.0501002004008011  7.17525773195876 0.150300601202405  L 7.86254295532646 0.901803607214428  Z " fill-rule="nonzero" fill="#555555" stroke="none" transform="matrix(1 0 0 1 1126 530 )" />
  </g>
</svg>