<?xml version="1.0" encoding="utf-8"?>
<svg version="1.1" xmlns:xlink="http://www.w3.org/1999/xlink" width="18px" height="12px" xmlns="http://www.w3.org/2000/svg">
  <g transform="matrix(1 0 0 1 -937 -297 )">
    <path d="M 17.666015625 0.395833333333334  C 17.888671875 0.65972222222222  18 0.972222222222219  18 1.33333333333333  C 18 1.69444444444444  17.888671875 2.00694444444444  17.666015625 2.27083333333333  L 9.791015625 11.6041666666667  C 9.568359375 11.8680555555556  9.3046875 12  9 12  C 8.6953125 12  8.431640625 11.8680555555556  8.208984375 11.6041666666667  L 0.333984375 2.27083333333333  C 0.111328125 2.00694444444444  0 1.69444444444444  0 1.33333333333333  C 0 0.972222222222219  0.111328125 0.65972222222222  0.333984375 0.395833333333334  C 0.556640625 0.131944444444443  0.8203125 0  1.125 0  L 16.875 0  C 17.1796875 0  17.443359375 0.131944444444443  17.666015625 0.395833333333334  Z " fill-rule="nonzero" fill="#02a7f0" stroke="none" transform="matrix(1 0 0 1 937 297 )" />
  </g>
</svg>