<?xml version="1.0" encoding="utf-8"?>
<svg version="1.1" xmlns:xlink="http://www.w3.org/1999/xlink" width="20px" height="12px" xmlns="http://www.w3.org/2000/svg">
  <g transform="matrix(1 0 0 1 -873 -227 )">
    <path d="M 19.62890625 0.395833333333334  C 19.8763020833333 0.65972222222222  20 0.972222222222219  20 1.33333333333333  C 20 1.69444444444444  19.8763020833333 2.00694444444444  19.62890625 2.27083333333333  L 10.87890625 11.6041666666667  C 10.6315104166667 11.8680555555556  10.3385416666667 12  10 12  C 9.66145833333334 12  9.36848958333334 11.8680555555556  9.12109375 11.6041666666667  L 0.37109375 2.27083333333333  C 0.123697916666667 2.00694444444444  0 1.69444444444444  0 1.33333333333333  C 0 0.972222222222219  0.123697916666667 0.65972222222222  0.37109375 0.395833333333334  C 0.618489583333333 0.131944444444443  0.911458333333333 0  1.25 0  L 18.75 0  C 19.0885416666667 0  19.3815104166667 0.131944444444443  19.62890625 0.395833333333334  Z " fill-rule="nonzero" fill="#02a7f0" stroke="none" transform="matrix(1 0 0 1 873 227 )" />
  </g>
</svg>