<?xml version="1.0" encoding="utf-8"?>
<svg version="1.1" xmlns:xlink="http://www.w3.org/1999/xlink" width="16px" height="12px" xmlns="http://www.w3.org/2000/svg">
  <g transform="matrix(1 0 0 1 -106 -297 )">
    <path d="M 15.703125 0.395833333333334  C 15.9010416666667 0.65972222222222  16 0.972222222222219  16 1.33333333333333  C 16 1.69444444444444  15.9010416666667 2.00694444444444  15.703125 2.27083333333333  L 8.703125 11.6041666666667  C 8.50520833333333 11.8680555555556  8.27083333333333 12  8 12  C 7.72916666666667 12  7.49479166666667 11.8680555555556  7.296875 11.6041666666667  L 0.296875 2.27083333333333  C 0.0989583333333333 2.00694444444444  0 1.69444444444444  0 1.33333333333333  C 0 0.972222222222219  0.0989583333333333 0.65972222222222  0.296875 0.395833333333334  C 0.494791666666667 0.131944444444443  0.729166666666667 0  1 0  L 15 0  C 15.2708333333333 0  15.5052083333333 0.131944444444443  15.703125 0.395833333333334  Z " fill-rule="nonzero" fill="#02a7f0" stroke="none" transform="matrix(1 0 0 1 106 297 )" />
  </g>
</svg>