<?xml version="1.0" encoding="utf-8"?>
<svg version="1.1" xmlns:xlink="http://www.w3.org/1999/xlink" width="17px" height="12px" xmlns="http://www.w3.org/2000/svg">
  <g transform="matrix(1 0 0 1 -434 -297 )">
    <path d="M 16.6845703125 0.395833333333334  C 16.8948567708333 0.65972222222222  17 0.972222222222219  17 1.33333333333333  C 17 1.69444444444444  16.8948567708333 2.00694444444444  16.6845703125 2.27083333333333  L 9.2470703125 11.6041666666667  C 9.03678385416667 11.8680555555556  8.78776041666667 12  8.5 12  C 8.21223958333333 12  7.96321614583333 11.8680555555556  7.7529296875 11.6041666666667  L 0.3154296875 2.27083333333333  C 0.105143229166667 2.00694444444444  0 1.69444444444444  0 1.33333333333333  C 0 0.972222222222219  0.105143229166667 0.65972222222222  0.3154296875 0.395833333333334  C 0.525716145833333 0.131944444444443  0.774739583333333 0  1.0625 0  L 15.9375 0  C 16.2252604166667 0  16.4742838541667 0.131944444444443  16.6845703125 0.395833333333334  Z " fill-rule="nonzero" fill="#555555" stroke="none" transform="matrix(1 0 0 1 434 297 )" />
  </g>
</svg>