<?xml version="1.0" encoding="utf-8"?>
<svg version="1.1" xmlns:xlink="http://www.w3.org/1999/xlink" width="8px" height="15px" xmlns="http://www.w3.org/2000/svg">
  <g transform="matrix(1 0 0 1 -1232 -530 )">
    <path d="M 7.86254295532646 7.15430861723447  C 7.95418098510882 7.25450901803607  8 7.36973947895792  8 7.5  C 8 7.63026052104208  7.95418098510882 7.74549098196393  7.86254295532646 7.84569138276553  L 1.45704467353952 14.8496993987976  C 1.36540664375716 14.9498997995992  1.26002290950745 15  1.14089347079038 15  C 1.02176403207331 15  0.916380297823597 14.9498997995992  0.824742268041237 14.8496993987976  L 0.13745704467354 14.0981963927856  C 0.0458190148911799 13.997995991984  0 13.8827655310621  0 13.75250501002  C 0 13.622244488978  0.0458190148911799 13.5070140280561  0.13745704467354 13.4068136272545  L 5.53951890034364 7.5  L 0.13745704467354 1.59318637274549  C 0.0458190148911799 1.49298597194389  0 1.37775551102204  0 1.24749498997996  C 0 1.11723446893787  0.0458190148911799 1.00200400801603  0.13745704467354 0.901803607214428  L 0.824742268041237 0.150300601202405  C 0.916380297823597 0.0501002004008011  1.02176403207331 0  1.14089347079038 0  C 1.26002290950745 0  1.36540664375716 0.0501002004008011  1.45704467353952 0.150300601202405  L 7.86254295532646 7.15430861723447  Z " fill-rule="nonzero" fill="#555555" stroke="none" transform="matrix(1 0 0 1 1232 530 )" />
  </g>
</svg>