<?xml version="1.0" encoding="utf-8"?>
<svg version="1.1" xmlns:xlink="http://www.w3.org/1999/xlink" width="34px" height="34px" xmlns="http://www.w3.org/2000/svg">
  <defs>
    <filter x="26px" y="-10px" width="34px" height="34px" filterUnits="userSpaceOnUse" id="filter71">
      <feOffset dx="-3" dy="-3" in="SourceAlpha" result="shadowOffsetInner" />
      <feGaussianBlur stdDeviation="2.5" in="shadowOffsetInner" result="shadowGaussian" />
      <feComposite in2="shadowGaussian" operator="atop" in="SourceAlpha" result="shadowComposite" />
      <feColorMatrix type="matrix" values="0 0 0 0 0  0 0 0 0 0  0 0 0 0 0  0 0 0 0.349019607843137 0  " in="shadowComposite" />
    </filter>
    <g id="widget72">
      <path d="M 46 -2  C 52.72 -2  58 3.28  58 10  C 58 16.72  52.72 22  46 22  C 39.28 22  34 16.72  34 10  C 34 3.28  39.28 -2  46 -2  Z " fill-rule="nonzero" fill="#02a7f0" stroke="none" />
      <path d="M 46 -1.5  C 52.44 -1.5  57.5 3.56  57.5 10  C 57.5 16.44  52.44 21.5  46 21.5  C 39.56 21.5  34.5 16.44  34.5 10  C 34.5 3.56  39.56 -1.5  46 -1.5  Z " stroke-width="1" stroke="#02a7f0" fill="none" />
    </g>
  </defs>
  <g transform="matrix(1 0 0 1 -26 10 )">
    <use xlink:href="#widget72" filter="url(#filter71)" />
    <use xlink:href="#widget72" />
  </g>
</svg>