<?xml version="1.0" encoding="utf-8"?>
<svg version="1.1" xmlns:xlink="http://www.w3.org/1999/xlink" width="16px" height="16px" xmlns="http://www.w3.org/2000/svg">
  <defs>
    <mask fill="white" id="clip66">
      <path d="M 0 16  L 0 10.6245120999228  L 0 0  L 16 0  L 16 6.25292740046924  L 16 16  L 6.40437158469945 16  L 0 16  Z " fill-rule="evenodd" />
    </mask>
  </defs>
  <g transform="matrix(1 0 0 1 -32 0 )">
    <path d="M 0 16  L 0 10.6245120999228  L 0 0  L 16 0  L 16 6.25292740046924  L 16 16  L 6.40437158469945 16  L 0 16  Z " fill-rule="nonzero" fill="#ffffff" stroke="none" transform="matrix(1 0 0 1 32 0 )" />
    <path d="M 0 16  L 0 10.6245120999228  L 0 0  L 16 0  L 16 6.25292740046924  L 16 16  L 6.40437158469945 16  L 0 16  Z " stroke-width="2" stroke="#797979" fill="none" transform="matrix(1 0 0 1 32 0 )" mask="url(#clip66)" />
  </g>
</svg>